<svg width="48" height="52" viewBox="0 0 48 52" fill="none" xmlns="http://www.w3.org/2000/svg">
<rect x="-3.05176e-05" width="48.0001" height="52.0001" rx="4" fill="url(#paint0_linear_236_767)"/>
<path fill-rule="evenodd" clip-rule="evenodd" d="M37.5839 18.8546C37.015 19.4816 36.3528 20.0412 35.6089 20.4953C35.5184 20.5626 35.393 20.5714 35.2909 20.504C34.194 19.8039 33.2692 18.9601 32.5457 18.0431C31.545 16.7833 30.9149 15.3859 30.699 14.0412C30.4802 12.6759 30.6844 11.3634 31.3612 10.2941C31.6296 9.87514 31.971 9.48842 32.3852 9.15737C33.3392 8.39565 34.4273 7.99135 35.5155 8.00014C36.5599 8.00893 37.5926 8.39858 38.4853 9.21596C38.8004 9.50307 39.0629 9.82827 39.2788 10.1857C40.0052 11.3898 40.1628 12.922 39.8419 14.4777C39.5268 16.0158 38.745 17.5773 37.5839 18.8546ZM14.9659 34.9708C14.3971 35.5978 13.7348 36.1574 12.9909 36.6115C12.9005 36.6789 12.775 36.6876 12.6729 36.6203C11.576 35.9171 10.6512 35.0763 9.92775 34.1593C8.93003 32.9025 8.29989 31.505 8.08401 30.1574C7.86521 28.7921 8.06942 27.4796 8.74624 26.4132C9.01171 25.9914 9.35304 25.6076 9.77022 25.2765C10.7242 24.5148 11.8123 24.1105 12.8976 24.1193C13.942 24.1281 14.9747 24.5177 15.8674 25.3351C16.1825 25.6222 16.445 25.9474 16.6609 26.3048C17.3873 27.5089 17.5449 29.0412 17.2239 30.5968C16.9089 32.132 16.127 33.6935 14.9659 34.9708ZM12.9793 38.1876C14.295 38.1876 15.4065 39.0724 15.7565 40.2794H33.2517C34.1152 40.2794 34.9029 39.9249 35.4747 39.3507C36.0464 38.7765 36.3994 37.9884 36.3994 37.1183C36.3994 36.2511 36.0464 35.4601 35.4747 34.8859C34.9029 34.3117 34.1181 33.9572 33.2517 33.9572H27.1311C25.7571 33.9572 24.5085 33.3947 23.6041 32.4865C22.6997 31.5783 22.1396 30.3244 22.1396 28.9445C22.1396 27.5646 22.6997 26.3107 23.6041 25.4025C24.5085 24.4943 25.7571 23.9318 27.1311 23.9318H32.6653C33.0445 22.7716 34.1327 21.9337 35.4134 21.9337C37.0121 21.9337 38.3074 23.2345 38.3074 24.84C38.3074 26.4455 37.0121 27.7462 35.4134 27.7462C34.1444 27.7462 33.0679 26.9259 32.677 25.7863H27.1311C26.2676 25.7863 25.4799 26.1408 24.9081 26.715C24.3364 27.2892 23.9834 28.0773 23.9834 28.9474C23.9834 29.8146 24.3364 30.6056 24.9081 31.1798C25.4741 31.7482 26.253 32.1027 27.1107 32.1085H33.2546C34.6286 32.1085 35.8772 32.671 36.7816 33.5792C37.686 34.4874 38.2461 35.7414 38.2461 37.1212C38.2461 38.5011 37.686 39.755 36.7816 40.6632C35.8772 41.5714 34.6286 42.1339 33.2546 42.1339H15.6836C15.2664 43.2267 14.2133 44.0001 12.9793 44.0001C11.3806 44.0001 10.0853 42.6994 10.0853 41.0939C10.0853 39.4884 11.3806 38.1876 12.9793 38.1876ZM12.6904 26.5451C13.9799 26.5451 15.0243 27.5939 15.0243 28.8888C15.0243 30.1837 13.9799 31.2326 12.6904 31.2326C11.401 31.2326 10.3566 30.1837 10.3566 28.8888C10.3566 27.5939 11.401 26.5451 12.6904 26.5451ZM35.3084 10.4259C36.5978 10.4259 37.6422 11.4747 37.6422 12.7697C37.6422 14.0646 36.5978 15.1134 35.3084 15.1134C34.0189 15.1134 32.9745 14.0646 32.9745 12.7697C32.9745 11.4747 34.0189 10.4259 35.3084 10.4259Z" fill="white"/>
<defs>
<linearGradient id="paint0_linear_236_767" x1="48.85" y1="26.0001" x2="-7.25004" y2="26.0001" gradientUnits="userSpaceOnUse">
<stop stop-color="#008CFF"/>
<stop offset="1" stop-color="#57B3FF"/>
</linearGradient>
</defs>
</svg>
