<svg width="48" height="52" viewBox="0 0 48 52" fill="none" xmlns="http://www.w3.org/2000/svg">
<rect x="-3.05176e-05" width="48.0001" height="52.0001" rx="4" fill="url(#paint0_linear_240_2256)"/>
<g clip-path="url(#clip0_240_2256)">
<path fill-rule="evenodd" clip-rule="evenodd" d="M28.8525 20.195L29.9462 21.2662C30.234 21.5486 30.2396 22.0149 29.9588 22.3043L29.0983 23.1872C29.3473 23.6399 29.5347 24.1239 29.6556 24.6265L30.7837 24.6124C31.1856 24.6075 31.5189 24.9341 31.5238 25.3373L31.5413 26.8706C31.5462 27.2745 31.2213 27.6088 30.8187 27.6131L29.5884 27.6278C29.445 28.1238 29.2361 28.5984 28.9673 29.0389L29.7747 29.8298C30.0625 30.1122 30.0681 30.5793 29.7873 30.8673L28.7194 31.9651C28.438 32.2538 27.9723 32.2594 27.6845 31.9771L26.8036 31.1145C26.3526 31.3642 25.8703 31.5522 25.3696 31.6736L25.3829 32.8045C25.3878 33.2084 25.0622 33.5427 24.6603 33.5476L23.1317 33.5652C22.7298 33.5701 22.3965 33.2442 22.3916 32.8403L22.3769 31.6062C21.8826 31.4615 21.4095 31.2518 20.9701 30.9825L20.1817 31.793C19.9002 32.0817 19.4345 32.0873 19.1468 31.805L18.0537 30.7338C17.7652 30.4514 17.7596 29.9851 18.0411 29.6957L18.901 28.8128C18.6531 28.3604 18.464 27.8758 18.3436 27.3742L17.2155 27.3876C16.8136 27.3925 16.4803 27.0659 16.4754 26.6627L16.4579 25.1294C16.453 24.7262 16.7779 24.3919 17.1805 24.3869L18.4108 24.3722C18.5552 23.8763 18.764 23.4016 19.0319 22.9604L18.2246 22.1695C17.9368 21.8871 17.9319 21.4207 18.2127 21.132L19.2805 20.0349C19.5613 19.7462 20.0269 19.7406 20.3147 20.0229L21.1956 20.8855C21.6466 20.6358 22.1289 20.4478 22.6296 20.3264L22.6163 19.1955C22.6114 18.7923 22.937 18.458 23.3397 18.4531L24.8675 18.4348C25.2702 18.4299 25.6028 18.7558 25.6077 19.1597L25.6224 20.3938C26.1172 20.5381 26.5907 20.7476 27.0305 21.0168L27.8183 20.207C28.0998 19.9183 28.5654 19.9134 28.8532 20.195H28.8525ZM23.1387 16.1225V14.4122C22.5832 14.2647 22.0765 13.9722 21.6703 13.5644C21.0822 12.9716 20.718 12.1561 20.718 11.2591C20.718 10.3636 21.0815 9.54879 21.6703 8.95807L21.6731 8.95526C22.262 8.36525 23.0736 8 23.9671 8C24.8605 8 25.6728 8.36525 26.2617 8.95526L26.2645 8.95807C26.8527 9.54879 27.2168 10.3636 27.2168 11.2591C27.2168 12.1561 26.8527 12.9716 26.2631 13.5623C25.8341 13.996 25.2915 14.2992 24.6981 14.4368V16.0979C24.2366 16.1001 23.7731 16.1099 23.3117 16.1155C23.2535 16.1162 23.1961 16.1183 23.1387 16.1225ZM24.7408 37.5745C25.3255 37.7178 25.8485 38.0219 26.2617 38.4356L26.2645 38.4391C26.8527 39.0298 27.2168 39.8439 27.2168 40.7402C27.2168 41.6364 26.8527 42.4505 26.2645 43.0412L26.2617 43.0447C25.6728 43.6348 24.8605 44 23.9671 44C23.0736 44 22.262 43.6348 21.6731 43.0447L21.6703 43.0412C21.0815 42.4505 20.718 41.6364 20.718 40.7402C20.718 39.8439 21.0815 39.0298 21.6703 38.4391L21.6731 38.4356C22.0835 38.0247 22.6023 37.7227 23.1814 37.5773V35.9028C23.6828 35.9021 24.1862 35.8901 24.6869 35.8845L24.7408 35.8831V37.5745ZM25.1623 39.5384C24.8591 39.2342 24.4362 39.0453 23.9671 39.0453C23.4986 39.0453 23.0757 39.2342 22.7725 39.5384L22.769 39.5412C22.4658 39.846 22.2774 40.2696 22.2774 40.7402C22.2774 41.2108 22.4658 41.6343 22.769 41.9392L22.7725 41.942C23.0757 42.2461 23.4986 42.4351 23.9671 42.4351C24.4362 42.4351 24.8591 42.2461 25.1623 41.942L25.1651 41.9392C25.469 41.6343 25.6574 41.2108 25.6574 40.7402C25.6574 40.2696 25.469 39.846 25.1651 39.5412L25.1623 39.5384ZM25.1623 10.058C24.8591 9.75319 24.4362 9.56424 23.9671 9.56424C23.4986 9.56424 23.0757 9.75319 22.7725 10.058L22.769 10.0608C22.4658 10.365 22.2774 10.7892 22.2774 11.2591C22.2774 11.7297 22.4658 12.154 22.769 12.4588C23.0778 12.7651 23.5007 12.9547 23.9671 12.9547C24.4341 12.9547 24.857 12.7651 25.1623 12.4588C25.469 12.154 25.6574 11.7297 25.6574 11.2591C25.6574 10.7892 25.469 10.365 25.1651 10.0608L25.1623 10.058ZM36.7503 30.1017C37.6437 30.1017 38.456 30.4669 39.0449 31.0569L39.0477 31.0597C39.6359 31.6504 40 32.4652 40 33.3615C40 34.2577 39.6359 35.0718 39.0477 35.6625L39.0449 35.666C38.456 36.2561 37.6437 36.6206 36.7503 36.6206C35.8568 36.6206 35.0438 36.2554 34.4549 35.6639C33.8654 35.076 33.5005 34.2606 33.5005 33.3615C33.5005 33.0328 33.5496 32.7153 33.6399 32.4161L32.098 31.5226C32.2534 31.1391 32.3291 30.7289 32.3242 30.3194C32.3228 30.155 32.3074 29.9914 32.2801 29.8298L34.4332 31.0766L34.4528 31.0569C35.0403 30.4676 35.854 30.1017 36.7503 30.1017ZM37.9455 32.1597C37.6423 31.8548 37.2194 31.6659 36.7503 31.6659C36.2839 31.6659 35.8603 31.8562 35.555 32.1625C35.3979 32.3198 35.2734 32.5068 35.1886 32.7125C35.1037 32.9183 35.0603 33.1388 35.0606 33.3615C35.0606 33.83 35.2497 34.2535 35.555 34.5598C35.8589 34.8674 36.2818 35.0564 36.7503 35.0564C37.2194 35.0564 37.6423 34.8674 37.9455 34.5633L37.9483 34.5598C38.2522 34.2556 38.4406 33.8321 38.4406 33.3615C38.4406 32.8909 38.2522 32.4666 37.9483 32.1625L37.9455 32.1597ZM11.2497 30.1017C12.1278 30.1017 12.926 30.4529 13.5107 31.0211L15.5238 29.8544C15.5091 29.9844 15.5028 30.1143 15.5042 30.2449C15.5084 30.6769 15.6036 31.1068 15.7864 31.5043L14.3377 32.3437C14.4427 32.664 14.4994 33.0061 14.4994 33.3615C14.4994 34.2606 14.1346 35.076 13.5471 35.666C12.9561 36.2554 12.1432 36.6206 11.2497 36.6206C10.3562 36.6206 9.54395 36.2561 8.95507 35.666L8.95227 35.6625C8.36408 35.0718 7.99997 34.2577 7.99997 33.3615C7.99997 32.4645 8.36408 31.6497 8.95367 31.0583C9.53975 30.4676 10.3527 30.1017 11.2497 30.1017ZM12.445 32.1625C12.2881 32.0049 12.1018 31.8799 11.8967 31.7947C11.6915 31.7095 11.4717 31.6657 11.2497 31.6659C10.7826 31.6659 10.3597 31.8562 10.0544 32.1625C9.74772 32.4666 9.55936 32.8909 9.55936 33.3615C9.55936 33.8321 9.74772 34.2556 10.0516 34.5598L10.0544 34.5633C10.3576 34.8674 10.7805 35.0564 11.2497 35.0564C11.7181 35.0564 12.1411 34.8674 12.445 34.5633C12.7503 34.2535 12.9393 33.83 12.9393 33.3615C12.9393 32.893 12.7503 32.4687 12.445 32.1625ZM36.7503 15.3611C37.6472 15.3611 38.4602 15.7264 39.0484 16.3164C39.6359 16.9057 40 17.7212 40 18.621C40 19.5172 39.6359 20.332 39.0477 20.9227L39.0449 20.9255C38.456 21.5155 37.6437 21.8808 36.7503 21.8808C35.854 21.8808 35.0403 21.5148 34.4528 20.9255L34.4115 20.8827L32.4894 21.9974C32.495 21.9166 32.4971 21.8358 32.4957 21.7558C32.4907 21.2794 32.3759 20.8106 32.1603 20.3861L33.6308 19.5334C33.5468 19.244 33.5005 18.9377 33.5005 18.621C33.5005 17.7247 33.8647 16.9106 34.4528 16.3199L34.4563 16.3164C35.0452 15.7264 35.8568 15.3611 36.7503 15.3611ZM37.9462 17.422C37.7892 17.2644 37.6028 17.1395 37.3975 17.0544C37.1923 16.9693 36.9723 16.9257 36.7503 16.9261C36.2811 16.9261 35.8589 17.115 35.555 17.4192L35.5522 17.422C35.249 17.7268 35.0606 18.1504 35.0606 18.621C35.0606 19.0888 35.2497 19.5137 35.555 19.82C35.7118 19.9775 35.8982 20.1025 36.1033 20.1877C36.3084 20.273 36.5282 20.3167 36.7503 20.3165C37.2194 20.3165 37.6423 20.1276 37.9455 19.8228L37.9483 19.82C38.2522 19.5158 38.4406 19.0916 38.4406 18.621C38.4406 18.1525 38.2508 17.7275 37.9462 17.422ZM11.2497 15.3611C12.1432 15.3611 12.9547 15.7264 13.5436 16.3164L13.5471 16.3199C14.1353 16.9106 14.4994 17.7247 14.4994 18.621C14.4994 18.8851 14.4672 19.1421 14.4084 19.388L15.9643 20.3341C15.7237 20.8507 15.6304 21.4239 15.6947 21.9904L13.6906 20.7717C13.6444 20.8244 13.5961 20.8764 13.5471 20.9255C12.9596 21.5148 12.146 21.8808 11.2497 21.8808C10.3527 21.8808 9.53975 21.5148 8.95227 20.9255C8.36408 20.3327 7.99997 19.5179 7.99997 18.621C7.99997 17.7247 8.36408 16.9106 8.95227 16.3199L8.95507 16.3164C9.54395 15.7264 10.3562 15.3611 11.2497 15.3611ZM12.445 17.4192C12.1411 17.115 11.7188 16.9261 11.2497 16.9261C10.7805 16.9261 10.3576 17.115 10.0544 17.4192L10.0516 17.422C9.74772 17.7268 9.55936 18.1504 9.55936 18.621C9.55936 19.0916 9.74772 19.5158 10.0516 19.82C10.3597 20.1262 10.7826 20.3165 11.2497 20.3165C11.716 20.3165 12.1397 20.1262 12.445 19.82C12.602 19.6626 12.7264 19.4756 12.8113 19.2699C12.8961 19.0641 12.9396 18.8436 12.9393 18.621C12.9393 18.1504 12.751 17.7268 12.4478 17.422L12.445 17.4192ZM23.9636 22.9857C25.6231 22.966 26.985 24.2998 27.0046 25.9638C27.0249 27.6285 25.6945 28.9947 24.035 29.0143C22.3762 29.0347 21.0142 27.7002 20.9946 26.0362C20.975 24.3715 22.3047 23.0053 23.9636 22.9857Z" fill="white"/>
</g>
<defs>
<linearGradient id="paint0_linear_240_2256" x1="48.85" y1="26.0001" x2="-7.25004" y2="26.0001" gradientUnits="userSpaceOnUse">
<stop stop-color="#008CFF"/>
<stop offset="1" stop-color="#57B3FF"/>
</linearGradient>
<clipPath id="clip0_240_2256">
<rect width="32" height="36" fill="white" transform="translate(7.99997 8)"/>
</clipPath>
</defs>
</svg>
