<svg width="48" height="52" viewBox="0 0 48 52" fill="none" xmlns="http://www.w3.org/2000/svg">
<rect x="-3.05176e-05" width="48.0001" height="52.0001" rx="4" fill="url(#paint0_linear_240_2259)"/>
<path d="M18.8935 29.0953C18.8935 29.3304 18.7959 29.5558 18.6222 29.722C18.4485 29.8882 18.2128 29.9815 17.9671 29.9815C17.7214 29.9815 17.4858 29.8882 17.3121 29.722C17.1383 29.5558 17.0407 29.3304 17.0407 29.0953V27.4548C16.9893 27.4311 16.9409 27.4016 16.8968 27.3669C16.3088 26.9157 15.6718 26.4148 15.1052 25.9783C14.2906 25.3426 13.3566 24.6072 12.7042 24.0916C12.2928 23.7548 11.802 23.5185 11.2741 23.4032C11.0044 23.3398 10.7213 23.353 10.4594 23.4413C10.361 23.4815 10.2718 23.54 10.1971 23.6134C10.1225 23.6868 10.0638 23.7737 10.0246 23.869C9.86651 24.2655 9.81083 24.6926 9.86225 25.1141C9.91989 25.6462 10.0711 26.1652 10.3094 26.6492C10.6275 27.3206 11.0208 27.9571 11.4823 28.5475C11.5037 28.5739 11.5221 28.6032 11.5405 28.6295L18.5842 38.8244C18.6641 38.9395 18.7144 39.071 18.7312 39.2082C18.8721 40.3185 19.1202 41.1505 19.4815 41.6691C19.5857 41.8422 19.7362 41.9856 19.9176 42.0845C20.0991 42.1834 20.3048 42.2341 20.5136 42.2315H31.5906C32.2661 42.2235 32.9229 42.0192 33.4741 41.6456C34.1917 41.1327 34.7807 40.4732 35.1983 39.715L35.333 39.4953C36.7019 37.2395 38.028 35.0482 38.1689 32.4497L38.0984 29.4322C38.0938 29.3894 38.0938 29.3462 38.0984 29.3033V28.5944C38.126 26.3855 38.1658 23.0048 36.2609 22.6767H34.99C35.0298 23.617 34.9716 24.5926 34.9196 25.4773C34.8889 26.0017 34.8583 26.488 34.8583 26.9421C34.8583 27.1752 34.7615 27.3987 34.5892 27.5636C34.4169 27.7284 34.1832 27.821 33.9396 27.821C33.6959 27.821 33.4622 27.7284 33.2899 27.5636C33.1176 27.3987 33.0208 27.1752 33.0208 26.9421C33.0208 26.5203 33.0515 25.9754 33.0882 25.3865C33.2168 23.1864 33.3944 20.2451 31.7836 19.9551H30.5586C30.4802 19.9553 30.402 19.9465 30.3258 19.9287C30.3763 20.9902 30.3589 22.0537 30.2738 23.1132C30.2431 23.6376 30.2156 24.1239 30.2156 24.5779C30.2156 24.8134 30.1178 25.0391 29.9438 25.2056C29.7698 25.3721 29.5338 25.4656 29.2876 25.4656C29.0415 25.4656 28.8055 25.3721 28.6315 25.2056C28.4575 25.0391 28.3597 24.8134 28.3597 24.5779C28.3597 24.159 28.3934 23.6141 28.4271 23.0253C28.5588 20.8252 28.7333 17.8839 27.1255 17.5939H25.9005C25.8187 17.5938 25.7373 17.583 25.6586 17.5616V22.1318C25.6586 22.3672 25.5608 22.593 25.3868 22.7594C25.2128 22.9259 24.9768 23.0194 24.7307 23.0194C24.4846 23.0194 24.2485 22.9259 24.0745 22.7594C23.9005 22.593 23.8027 22.3672 23.8027 22.1318V12.9183C23.8027 11.3744 23.1443 10.4018 22.3021 9.98869C22.0038 9.84147 21.6731 9.76466 21.3374 9.76466C21.0018 9.76466 20.671 9.84147 20.3727 9.98869C19.5397 10.3959 18.8905 11.3714 18.8905 12.9534V29.0953H18.8935ZM32.7666 31.855C32.7666 31.6608 32.8473 31.4745 32.9909 31.3371C33.1345 31.1998 33.3292 31.1226 33.5323 31.1226C33.7353 31.1226 33.9301 31.1998 34.0736 31.3371C34.2172 31.4745 34.2979 31.6608 34.2979 31.855V35.1713C34.2979 35.3655 34.2172 35.5518 34.0736 35.6891C33.9301 35.8265 33.7353 35.9037 33.5323 35.9037C33.3292 35.9037 33.1345 35.8265 32.9909 35.6891C32.8473 35.5518 32.7666 35.3655 32.7666 35.1713V31.8579V31.855ZM28.2893 30.3902C28.2893 30.196 28.3699 30.0097 28.5135 29.8723C28.6571 29.735 28.8518 29.6578 29.0549 29.6578C29.258 29.6578 29.4527 29.735 29.5963 29.8723C29.7399 30.0097 29.8205 30.196 29.8205 30.3902V35.1713C29.8205 35.3655 29.7399 35.5518 29.5963 35.6891C29.4527 35.8265 29.258 35.9037 29.0549 35.9037C28.8518 35.9037 28.6571 35.8265 28.5135 35.6891C28.3699 35.5518 28.2893 35.3655 28.2893 35.1713V30.3931V30.3902ZM17.0407 25.2049V12.9563C17.0407 10.6127 18.134 9.09517 19.5367 8.41258C20.0951 8.14136 20.7126 8 21.3389 8C21.9653 8 22.5828 8.14136 23.1412 8.41258C24.553 9.09517 25.6617 10.6098 25.6617 12.9153V15.8449C25.7404 15.8235 25.8218 15.8127 25.9036 15.8127H27.1807C27.2518 15.8129 27.3227 15.8207 27.392 15.8361C28.9232 16.0734 29.695 17.0519 30.0563 18.3233C30.2045 18.233 30.3767 18.1852 30.5525 18.1856H31.8326C31.9038 18.1844 31.9749 18.1923 32.0439 18.2091C33.6793 18.4581 34.4388 19.5508 34.7726 20.9423C34.8523 20.9211 34.9348 20.9103 35.0176 20.9101H36.2977C36.3688 20.9103 36.4397 20.9182 36.509 20.9336C40.0186 21.4697 39.9696 25.7966 39.9359 28.6178C39.9359 28.7057 39.9359 28.7907 39.9359 29.3004L40.0094 32.4233C40.0125 32.4565 40.0125 32.4898 40.0094 32.5229C39.8533 35.5668 38.4139 37.9426 36.9286 40.3918L36.7999 40.6027C36.2455 41.5916 35.4658 42.4487 34.5184 43.1104C33.6601 43.6852 32.6384 43.995 31.5906 43.9981H20.5412C20.0234 44.0166 19.5099 43.9016 19.0546 43.665C18.5993 43.4284 18.2189 43.079 17.9534 42.6534C17.445 41.9269 17.1081 40.8956 16.9274 39.6271L10.0062 29.608C9.46163 28.9099 8.99752 28.1575 8.62194 27.364C8.29567 26.6883 8.09365 25.9638 8.02475 25.2225C7.94719 24.5146 8.05235 23.7994 8.331 23.1395C8.60521 22.5301 9.11888 22.0482 9.76118 21.7978C10.3534 21.5825 10.9985 21.5377 11.6171 21.6689C12.4484 21.8414 13.2232 22.2055 13.8741 22.7294C14.4346 23.1747 15.3655 23.9012 16.2659 24.6072L17.0285 25.1932L17.0407 25.2049Z" fill="white"/>
<defs>
<linearGradient id="paint0_linear_240_2259" x1="48.85" y1="26.0001" x2="-7.25004" y2="26.0001" gradientUnits="userSpaceOnUse">
<stop stop-color="#008CFF"/>
<stop offset="1" stop-color="#57B3FF"/>
</linearGradient>
</defs>
</svg>
