<svg width="1440" height="751" viewBox="0 0 1440 751" fill="none" xmlns="http://www.w3.org/2000/svg">
<path fill-rule="evenodd" clip-rule="evenodd" d="M-144.263 1034.3L-251 1078.66L-234.416 1155L-176.468 1130.92C-66.3642 1085.84 147.11 997.132 355.169 867.271C402.249 837.886 448.706 806.469 495.077 775.111C653.636 667.885 811.187 561.341 989.153 539.057C1096.56 525.608 1209.93 543.168 1323.25 560.721C1452.61 580.757 1581.9 600.783 1702.17 574.657C1797.26 554 1885.52 504.749 1973.69 455.547C2094.71 388.01 2215.57 320.566 2353.72 327.29C2463.26 332.622 2582.27 384.898 2701.2 437.144C2841.52 498.786 2981.75 560.387 3106.25 544.798C3330.4 516.731 3497.15 239.83 3587.08 90.4808C3589.43 86.574 3591.73 82.7544 3593.98 79.0289L3678.76 -66.3833L3844.58 696.936L3895.38 685.901L3710.97 -163L3626.19 -17.5878C3623.94 -13.8624 3621.64 -10.043 3619.29 -6.13629C3529.35 143.213 3362.6 420.115 3138.45 448.181C3013.96 463.77 2873.73 402.169 2733.41 340.527C2614.47 288.281 2495.47 236.006 2385.92 230.674C2247.77 223.95 2126.91 291.394 2005.89 358.93C1917.72 408.132 1829.47 457.383 1734.37 478.04C1614.11 504.167 1484.81 484.141 1355.45 464.104C1242.13 446.552 1128.76 428.992 1021.36 442.44C843.392 464.724 685.841 571.268 527.282 678.494C480.911 709.853 434.454 741.27 387.374 770.654C179.315 900.515 -34.1591 989.22 -144.263 1034.3Z" fill="#C2E7FF"/>
</svg>
