<svg width="568" height="503" viewBox="0 0 568 503" fill="none" xmlns="http://www.w3.org/2000/svg">
<path d="M119.033 330.404L219.268 272.418L218.877 271.741L219.252 272.427L219.258 272.423C219.393 272.351 221.889 270.998 225.212 269.671C226.874 269.009 228.741 268.352 230.618 267.865C232.494 267.376 234.381 267.06 236.06 267.06C237.738 267.058 239.665 267.474 241.595 268.119C244.49 269.083 247.388 270.547 249.551 271.769C250.631 272.378 251.532 272.928 252.158 273.324C252.471 273.524 252.716 273.682 252.882 273.792C252.964 273.846 253.029 273.889 253.07 273.917C253.092 273.932 253.107 273.942 253.117 273.95L253.129 273.956L253.133 273.96L253.152 273.972L281.337 290.774L299.893 300.939L300.271 300.254L299.875 300.929C299.891 300.937 302.206 302.289 305.263 303.669C306.792 304.361 308.506 305.059 310.219 305.601C311.931 306.142 313.64 306.531 315.192 306.584C315.29 306.588 315.386 306.59 315.483 306.59C317.057 306.588 318.762 306.193 320.457 305.624C322.995 304.766 325.51 303.497 327.403 302.444C329.293 301.388 330.559 300.546 330.571 300.538L330.137 299.889L330.552 300.552L351.194 287.676L399.381 316.762L400.191 315.423L351.18 285.84L329.712 299.232L329.702 299.238L329.698 299.24C329.579 299.32 327.358 300.784 324.484 302.217C323.048 302.934 321.449 303.642 319.879 304.166C318.312 304.692 316.771 305.028 315.483 305.026C315.401 305.026 315.323 305.024 315.245 305.022C313.918 304.979 312.321 304.627 310.69 304.111C308.246 303.337 305.727 302.201 303.831 301.259C302.881 300.788 302.087 300.368 301.531 300.063C301.253 299.912 301.036 299.789 300.887 299.707C300.815 299.664 300.758 299.633 300.721 299.611C300.701 299.6 300.687 299.592 300.678 299.586L300.664 299.578L300.656 299.574L282.114 289.418L253.974 272.642L253.573 273.313L254.015 272.668C253.998 272.656 251.403 270.881 247.878 269.098C246.114 268.207 244.12 267.312 242.09 266.636C240.059 265.959 237.992 265.498 236.06 265.496C234.158 265.496 232.123 265.852 230.13 266.376C227.144 267.161 224.247 268.328 222.088 269.3C219.932 270.271 218.513 271.049 218.499 271.057L218.491 271.061L118.248 329.051L119.033 330.404H119.033" fill="#56A6E8"/>
<path d="M297.758 208.442L327.724 225.287L328.107 224.607L327.675 225.258C327.69 225.268 329.103 226.21 331.025 227.177C331.986 227.664 333.075 228.155 334.188 228.542C335.302 228.927 336.439 229.21 337.525 229.257C337.682 229.265 337.836 229.267 337.991 229.267C339.997 229.265 341.939 228.759 343.397 228.258C344.853 227.76 345.823 227.262 345.847 227.25L345.863 227.24L416.054 186.778L534.637 254.856L534.651 254.862L534.657 254.866C534.767 254.923 536.888 256.045 538.976 257.573C540.02 258.335 541.053 259.201 541.812 260.058C542.192 260.486 542.503 260.91 542.715 261.303C542.928 261.698 543.041 262.057 543.061 262.362C543.063 262.401 543.065 262.442 543.065 262.481C543.065 262.798 542.983 263.146 542.814 263.519C542.523 264.174 541.961 264.893 541.27 265.574C540.237 266.596 538.926 267.532 537.88 268.203C537.358 268.537 536.902 268.807 536.577 268.993C536.415 269.084 536.287 269.155 536.199 269.204C536.156 269.227 536.121 269.245 536.099 269.256L536.076 269.27L536.07 269.272H536.068L536.051 269.284L466.511 310.796L467.315 312.139L536.833 270.636L536.432 269.966L536.794 270.658C536.818 270.646 538.7 269.665 540.617 268.197C541.576 267.462 542.544 266.608 543.302 265.662C543.679 265.187 544.004 264.688 544.243 264.16C544.48 263.633 544.631 263.068 544.631 262.481C544.631 262.407 544.629 262.333 544.623 262.259C544.582 261.653 544.376 261.078 544.079 260.536C543.558 259.586 542.754 258.705 541.848 257.882C540.485 256.651 538.877 255.56 537.603 254.766C536.328 253.975 535.389 253.484 535.377 253.476L535.015 254.17L535.405 253.492L416.054 184.973L345.097 225.878L345.489 226.554L345.129 225.86L345.264 226.118L345.131 225.86H345.129L345.264 226.118L345.131 225.86C345.125 225.862 344.209 226.329 342.856 226.79C341.504 227.254 339.713 227.705 337.991 227.703C337.858 227.703 337.723 227.701 337.592 227.695C336.736 227.66 335.723 227.42 334.701 227.064C333.167 226.532 331.615 225.753 330.456 225.106C329.877 224.783 329.395 224.494 329.06 224.285C328.892 224.181 328.761 224.099 328.673 224.042C328.63 224.013 328.597 223.991 328.573 223.976L328.55 223.96L328.542 223.956L328.518 223.941L298.525 207.077L297.758 208.442" fill="#56A6E8"/>
<path d="M208.213 208.35L162.092 234.887L162.482 235.565L162.19 234.84C162.156 234.854 160.407 235.558 158.613 236.84C157.716 237.483 156.805 238.271 156.094 239.223C155.74 239.7 155.436 240.218 155.218 240.781C155.001 241.344 154.873 241.951 154.873 242.591C154.873 242.641 154.874 242.692 154.875 242.743C154.896 243.384 155.035 243.992 155.257 244.553C155.647 245.538 156.28 246.387 156.992 247.112C158.062 248.199 159.319 249.02 160.314 249.583C161.309 250.144 162.044 250.443 162.066 250.452L162.361 249.727L161.973 250.407L250.031 300.567L250.106 300.593L250.168 300.401L250.106 300.593L250.168 300.401L250.106 300.593C250.121 300.596 253.468 301.717 256.752 303.841C258.394 304.901 260.017 306.21 261.203 307.723C261.796 308.48 262.281 309.283 262.618 310.132C262.952 310.982 263.14 311.875 263.14 312.825C263.14 312.892 263.14 312.96 263.138 313.026C263.111 314.006 262.898 314.981 262.537 315.947C261.909 317.638 260.821 319.291 259.529 320.806C257.594 323.081 255.21 325.044 253.315 326.426C252.366 327.118 251.542 327.667 250.955 328.041C250.663 328.226 250.43 328.369 250.27 328.465C250.192 328.514 250.131 328.549 250.09 328.572C250.07 328.584 250.055 328.594 250.045 328.6L250.035 328.605L250.031 328.607L250.029 328.609L172.378 374.684L172.322 374.733L172.352 374.768L172.322 374.733L172.352 374.768L172.322 374.733C172.296 374.756 170.528 376.314 167.731 377.854C166.334 378.624 164.679 379.389 162.862 379.959C161.044 380.528 159.064 380.904 157.009 380.904C155.622 380.905 154.004 380.583 152.377 380.086C149.932 379.342 147.465 378.208 145.619 377.262C144.696 376.789 143.927 376.363 143.391 376.058C143.123 375.903 142.913 375.78 142.771 375.696C142.7 375.653 142.645 375.62 142.61 375.598C142.591 375.589 142.578 375.579 142.569 375.575L142.557 375.567L142.551 375.563L119.954 362.281L119.16 363.628L141.749 376.906L142.146 376.232L141.735 376.898C141.752 376.908 143.985 378.284 146.993 379.67C148.498 380.362 150.197 381.056 151.919 381.582C153.642 382.106 155.387 382.467 157.009 382.467C159.273 382.467 161.425 382.053 163.377 381.437C166.305 380.511 168.787 379.135 170.546 377.987C172.305 376.84 173.341 375.921 173.363 375.901L172.842 375.317L173.242 375.989L250.822 329.956L250.423 329.284L250.812 329.962C250.84 329.946 254.19 328.023 257.603 324.981C259.308 323.461 261.032 321.658 262.363 319.653C263.029 318.65 263.594 317.595 264.005 316.494C264.416 315.394 264.671 314.246 264.702 313.069H264.704C264.706 312.987 264.706 312.907 264.706 312.825C264.706 311.662 264.473 310.562 264.068 309.545C263.359 307.766 262.146 306.24 260.749 304.942C258.649 302.997 256.124 301.554 254.118 300.581C252.112 299.609 250.622 299.115 250.599 299.107L250.352 299.85L250.74 299.171L162.703 249.024L162.655 249.004L162.583 249.182L162.656 249.004H162.655L162.583 249.182L162.656 249.004C162.64 248.998 161.044 248.339 159.486 247.194C158.707 246.623 157.94 245.931 157.381 245.165C157.1 244.782 156.871 244.383 156.71 243.971C156.549 243.558 156.455 243.136 156.44 242.694C156.439 242.659 156.439 242.626 156.439 242.591C156.439 242.161 156.524 241.748 156.68 241.344C156.952 240.634 157.454 239.946 158.075 239.324C159.005 238.392 160.193 237.62 161.141 237.094C161.615 236.83 162.029 236.627 162.322 236.49C162.468 236.424 162.584 236.371 162.662 236.338C162.701 236.322 162.731 236.308 162.75 236.3L162.771 236.293L162.775 236.291L162.826 236.269L208.996 209.705L208.213 208.35" fill="#56A6E8"/>
<path d="M252.505 249.444C250.014 249.444 247.518 248.893 245.612 247.794L194.26 218.184L208.996 209.705L208.213 208.35L192.693 217.279L134.659 183.817C130.841 181.614 130.82 178.046 134.608 175.847L244.841 111.868C246.733 110.769 249.221 110.22 251.712 110.22C254.206 110.22 256.701 110.769 258.611 111.872L369.564 175.849C373.377 178.048 373.398 181.616 369.609 183.815L314.275 215.932L298.525 207.078L297.758 208.442L312.703 216.843L259.379 247.794C257.484 248.893 254.997 249.444 252.505 249.444" fill="#C3CFDA"/>
<path d="M312.703 216.843L297.758 208.442L298.525 207.078L314.274 215.932L312.703 216.843" fill="#458CC9"/>
<path d="M194.26 218.184L192.693 217.279L208.213 208.35L208.996 209.705L194.26 218.184Z" fill="#458CC9"/>
<path d="M372.414 129.63C372.405 129.734 372.397 129.835 372.379 129.939C372.363 130.023 372.338 130.105 372.316 130.189C372.291 130.287 372.267 130.385 372.234 130.48C372.205 130.559 372.168 130.635 372.134 130.715C372.089 130.815 372.046 130.918 371.992 131.018C371.952 131.09 371.905 131.163 371.86 131.233C371.79 131.348 371.714 131.464 371.629 131.577C371.581 131.641 371.528 131.704 371.477 131.767C371.352 131.917 371.215 132.066 371.066 132.21C371.009 132.265 370.958 132.32 370.898 132.373C370.807 132.455 370.704 132.535 370.604 132.615C370.514 132.687 370.428 132.762 370.33 132.832C370.22 132.912 370.101 132.986 369.982 133.065C369.86 133.143 369.743 133.225 369.61 133.303L259.379 197.282L259.285 230.313L369.516 166.334C369.557 166.31 369.596 166.287 369.637 166.263C369.723 166.208 369.8 166.152 369.886 166.097C370.005 166.019 370.126 165.943 370.238 165.861C370.33 165.794 370.41 165.726 370.496 165.659C370.604 165.571 370.714 165.485 370.811 165.397C370.829 165.382 370.851 165.368 370.868 165.352C370.903 165.319 370.927 165.284 370.962 165.253C371.115 165.104 371.256 164.952 371.385 164.797C371.41 164.766 371.445 164.737 371.471 164.703C371.496 164.672 371.51 164.639 371.536 164.61C371.622 164.492 371.7 164.375 371.772 164.256C371.802 164.211 371.837 164.168 371.862 164.123C371.876 164.099 371.882 164.076 371.894 164.054C371.952 163.949 371.997 163.845 372.042 163.74C372.068 163.683 372.101 163.626 372.121 163.57C372.129 163.55 372.132 163.531 372.138 163.511C372.176 163.409 372.199 163.308 372.226 163.206C372.242 163.145 372.268 163.083 372.279 163.022L372.285 162.973C372.305 162.866 372.313 162.758 372.322 162.651C372.326 162.588 372.342 162.526 372.342 162.465C372.344 162.436 372.344 162.409 372.344 162.379L372.438 129.349C372.438 129.442 372.422 129.536 372.414 129.63" fill="#195DA0"/>
<path d="M259.38 197.282L259.286 230.313C258.636 230.69 257.918 231.001 257.154 231.249L257.248 198.218C258.012 197.97 258.732 197.659 259.38 197.282Z" fill="#185695"/>
<path d="M257.246 198.219L257.152 231.25C256.561 231.441 255.943 231.594 255.309 231.709L255.403 198.678C256.037 198.561 256.655 198.411 257.246 198.219Z" fill="#175491"/>
<path d="M255.403 198.678L255.309 231.709C254.902 231.779 254.485 231.838 254.067 231.881L254.161 198.85C254.579 198.807 254.994 198.75 255.403 198.678Z" fill="#16528D"/>
<path d="M254.161 198.85L254.067 231.881C253.71 231.914 253.348 231.939 252.988 231.951L253.082 198.923C253.442 198.909 253.804 198.885 254.161 198.85" fill="#164F89"/>
<path d="M253.082 198.922L252.988 231.951C252.656 231.963 252.323 231.965 251.99 231.957L252.084 198.926C252.417 198.934 252.75 198.932 253.082 198.922Z" fill="#154D84"/>
<path d="M252.084 198.926L251.99 231.957C251.67 231.949 251.351 231.932 251.031 231.906L251.125 198.876C251.442 198.901 251.763 198.919 252.084 198.926Z" fill="#144A80"/>
<path d="M250.893 198.848C250.732 198.835 250.574 198.815 250.415 198.795C250.265 198.778 250.112 198.754 249.961 198.731C249.795 198.708 249.628 198.676 249.464 198.647C249.325 198.62 249.184 198.592 249.047 198.561C248.848 198.518 248.652 198.469 248.456 198.416C248.341 198.387 248.225 198.358 248.112 198.322C247.754 198.221 247.405 198.104 247.069 197.973C246.898 197.908 246.734 197.834 246.569 197.761C246.489 197.724 246.407 197.695 246.327 197.656C246.082 197.539 245.841 197.415 245.612 197.283L134.659 133.303C132.737 132.195 131.778 130.741 131.781 129.29C131.751 140.299 131.719 151.31 131.688 162.321C131.684 163.773 132.643 165.225 134.566 166.334L245.518 230.313C245.747 230.446 245.984 230.569 246.227 230.685C246.331 230.731 246.438 230.774 246.544 230.819C246.669 230.876 246.793 230.935 246.922 230.986L246.965 230.999C247.307 231.134 247.66 231.249 248.024 231.357C248.051 231.365 248.076 231.376 248.104 231.384C248.182 231.406 248.264 231.421 248.345 231.443C248.55 231.498 248.758 231.55 248.967 231.595C249.018 231.607 249.067 231.621 249.12 231.633C249.196 231.648 249.272 231.658 249.349 231.672C249.529 231.707 249.707 231.738 249.889 231.767C249.953 231.775 250.018 231.791 250.084 231.799C250.157 231.81 250.231 231.814 250.306 231.826C250.47 231.846 250.636 231.865 250.803 231.881C250.879 231.889 250.955 231.9 251.032 231.906V231.9C253.962 232.141 257.04 231.617 259.285 230.313L259.379 197.283C257.073 198.622 253.891 199.14 250.893 198.848" fill="#113E6C"/>
<path d="M369.564 125.338C373.377 127.537 373.398 131.104 369.609 133.303L259.379 197.282C255.59 199.481 249.425 199.481 245.612 197.282L134.659 133.303C130.841 131.102 130.82 127.535 134.608 125.336L244.841 61.3562C248.628 59.1571 254.793 59.1571 258.611 61.3601L369.564 125.338" fill="#206FBE"/>
<path d="M347.577 332.597C347.581 333 347.616 333.369 347.683 333.709L347.691 333.744C347.759 334.084 347.857 334.391 347.984 334.663L347.99 334.671C348.096 334.902 348.237 335.097 348.381 335.275C348.428 335.337 348.473 335.398 348.524 335.455C348.697 335.638 348.882 335.799 349.092 335.922C347.587 335.05 349 335.893 347.495 335.021C345.986 334.145 344.481 333.269 342.976 332.399C342.766 332.276 342.58 332.114 342.41 331.932C342.357 331.876 342.31 331.811 342.261 331.751C342.199 331.67 342.13 331.602 342.075 331.518C342.003 331.407 341.938 331.287 341.88 331.162L341.874 331.154L341.864 331.129C341.825 331.045 341.788 330.961 341.755 330.869C341.721 330.781 341.692 330.689 341.664 330.597C341.639 330.509 341.616 330.421 341.594 330.331C341.586 330.298 341.578 330.259 341.573 330.222L341.565 330.187C341.559 330.152 341.551 330.116 341.543 330.079C341.527 329.999 341.516 329.917 341.508 329.831C341.496 329.747 341.486 329.669 341.481 329.581L341.51 329.596L341.481 329.581C341.473 329.503 341.471 329.419 341.465 329.336C341.463 329.256 341.463 329.172 341.459 329.086V329.075L347.577 332.597" fill="#206FBE"/>
<path d="M413.384 177.737L413.362 177.739C413.051 177.768 412.73 177.837 412.396 177.95L412.388 177.952C412.047 178.07 411.695 178.23 411.335 178.437L405.217 174.915C405.272 174.879 405.326 174.852 405.381 174.821C405.454 174.782 405.524 174.745 405.596 174.711C405.665 174.672 405.737 174.641 405.808 174.61C405.876 174.578 405.947 174.549 406.013 174.522C406.088 174.492 406.156 174.469 406.227 174.444L406.266 174.428L406.281 174.426C406.332 174.406 406.383 174.391 406.432 174.375C406.509 174.352 406.579 174.334 406.649 174.315C406.724 174.297 406.792 174.281 406.865 174.268C406.941 174.252 407.017 174.24 407.09 174.232C407.145 174.225 407.195 174.219 407.244 174.213H407.266C407.285 174.213 407.303 174.207 407.323 174.207C407.405 174.201 407.489 174.199 407.569 174.199C407.657 174.199 407.751 174.201 407.837 174.213C407.939 174.221 408.041 174.236 408.137 174.254L408.147 174.258L408.151 174.26C408.272 174.281 408.387 174.315 408.501 174.356C408.648 174.406 408.789 174.471 408.924 174.549C411.934 176.297 412.028 176.324 415.04 178.073C414.805 177.937 414.548 177.841 414.271 177.784L414.261 177.782C413.989 177.725 413.695 177.71 413.384 177.737" fill="#206FBE"/>
<path d="M347.261 221.351L341.143 217.826L341.458 329.074L347.576 332.597L347.261 221.351Z" fill="#206FBE"/>
<path d="M411.333 178.437L405.215 174.915L346.318 208.876L352.434 212.4L411.333 178.437" fill="#206FBE"/>
<path d="M350.431 214.018L350.406 214.048C350.099 214.372 349.809 214.72 349.537 215.09L349.533 215.096C349.265 215.459 349.014 215.844 348.783 216.241C348.774 216.261 348.764 216.278 348.754 216.3C348.527 216.691 348.32 217.095 348.14 217.508L348.136 217.514C347.954 217.934 347.797 218.36 347.666 218.788L347.66 218.811C347.531 219.238 347.431 219.668 347.363 220.09V220.092C347.294 220.518 347.259 220.942 347.261 221.351L341.143 217.826C341.143 217.75 341.145 217.672 341.147 217.592C341.149 217.51 341.154 217.426 341.158 217.343C341.162 217.259 341.17 217.173 341.18 217.093C341.184 217.007 341.196 216.923 341.207 216.837C341.217 216.753 341.231 216.663 341.244 216.579V216.565V216.564C341.26 216.483 341.272 216.399 341.289 216.317C341.305 216.225 341.323 216.135 341.344 216.046C341.362 215.956 341.385 215.864 341.409 215.774C341.428 215.684 341.454 215.592 341.479 215.5C341.499 215.426 341.52 215.357 341.54 215.287L341.55 215.264L341.562 215.227C341.589 215.139 341.614 215.047 341.646 214.957C341.677 214.871 341.706 214.781 341.738 214.693C341.769 214.605 341.8 214.523 341.832 214.439C341.867 214.353 341.9 214.273 341.933 214.187C341.961 214.122 341.99 214.058 342.02 213.993L342.023 213.981L342.041 213.94C342.078 213.854 342.115 213.772 342.155 213.688C342.198 213.598 342.243 213.506 342.288 213.413L342.307 213.422L342.288 213.413C342.34 213.309 342.395 213.205 342.45 213.104C342.509 212.988 342.573 212.879 342.638 212.767L342.663 212.723C342.679 212.697 342.689 212.67 342.705 212.644C342.828 212.439 342.959 212.232 343.092 212.033C343.196 211.874 343.307 211.718 343.419 211.563C343.495 211.462 343.574 211.36 343.652 211.26C343.718 211.176 343.785 211.098 343.849 211.014C343.916 210.934 343.985 210.858 344.053 210.782C344.118 210.703 344.186 210.631 344.255 210.557L344.294 210.516L344.309 210.498C344.36 210.445 344.413 210.389 344.468 210.334C344.538 210.263 344.613 210.187 344.685 210.117C344.761 210.045 344.836 209.974 344.912 209.908C344.99 209.837 345.067 209.769 345.145 209.704C345.182 209.671 345.223 209.644 345.261 209.611L345.284 209.591C345.313 209.566 345.343 209.538 345.374 209.515C345.45 209.458 345.525 209.4 345.601 209.345C345.675 209.288 345.754 209.235 345.828 209.183C345.901 209.132 345.971 209.085 346.049 209.038C346.12 208.993 346.194 208.946 346.267 208.903C346.284 208.895 346.3 208.883 346.319 208.876L352.435 212.4C352.083 212.601 351.739 212.844 351.404 213.115L351.377 213.137C351.052 213.403 350.733 213.698 350.431 214.018" fill="#206FBE"/>
<path d="M352.435 212.4C349.569 214.052 347.25 218.065 347.26 221.351L347.575 332.597C347.585 335.885 349.92 337.216 352.785 335.562L411.681 301.597C414.556 299.942 416.876 295.931 416.868 292.643L416.551 181.397C416.543 178.109 414.208 176.78 411.333 178.437L352.435 212.4" fill="#5DACED"/>
<path d="M350.457 334.01C350.639 334.01 351.038 333.955 351.653 333.601L410.549 299.64C412.716 298.391 414.608 295.125 414.603 292.648L414.287 181.404C414.287 180.976 414.225 179.987 413.671 179.987C413.489 179.987 413.088 180.04 412.467 180.397L353.569 214.358C351.408 215.604 349.521 218.868 349.527 221.347L349.841 332.593C349.844 333.019 349.907 334.01 350.457 334.01" fill="white"/>
<path d="M355.63 301.312C354.786 301.312 354.209 300.641 354.209 299.482L354.205 234.246C354.205 233.356 354.545 232.36 355.086 231.505C354.782 232.168 354.602 232.868 354.602 233.513L354.606 298.749C354.606 299.908 355.183 300.579 356.027 300.579C356.371 300.579 356.761 300.467 357.172 300.231L405.257 272.503C405.903 272.13 406.494 271.514 406.946 270.799C406.48 271.815 405.719 272.74 404.858 273.236L356.775 300.964C356.362 301.2 355.974 301.312 355.63 301.312Z" fill="white"/>
<path d="M356.026 300.579C355.183 300.579 354.606 299.908 354.606 298.749L354.602 233.513C354.602 232.868 354.782 232.168 355.085 231.505C355.201 231.255 355.334 231.009 355.482 230.772C355.179 231.435 355.001 232.135 355.001 232.78L355.003 298.014C355.003 299.175 355.582 299.846 356.424 299.846C356.77 299.846 357.158 299.734 357.571 299.496L405.654 271.77C406.302 271.397 406.893 270.779 407.343 270.064C407.227 270.316 407.094 270.562 406.946 270.799C406.494 271.514 405.902 272.13 405.257 272.503L357.171 300.231C356.76 300.467 356.371 300.579 356.026 300.579" fill="#FAFAFA"/>
<path d="M356.425 299.846C355.583 299.846 355.004 299.175 355.004 298.014L355.002 232.78C355.002 232.135 355.18 231.435 355.483 230.772C355.599 230.52 355.734 230.274 355.883 230.039C355.577 230.7 355.399 231.4 355.399 232.045L355.403 297.281C355.403 298.44 355.981 299.113 356.824 299.113C357.169 299.113 357.558 298.999 357.969 298.763L406.052 271.035C406.7 270.664 407.291 270.046 407.743 269.331C407.628 269.583 407.493 269.829 407.344 270.064C406.894 270.779 406.303 271.397 405.655 271.77L357.572 299.496C357.159 299.734 356.771 299.846 356.425 299.846Z" fill="#F7F7F7"/>
<path d="M356.823 299.112C355.98 299.112 355.402 298.44 355.402 297.281L355.398 232.045C355.398 231.4 355.576 230.7 355.882 230.039C355.997 229.787 356.13 229.543 356.279 229.306C355.976 229.969 355.796 230.667 355.796 231.312L355.8 296.548C355.8 297.707 356.379 298.378 357.22 298.378C357.565 298.378 357.954 298.266 358.365 298.03L406.451 270.302C407.096 269.929 407.687 269.313 408.14 268.598C408.024 268.85 407.891 269.096 407.742 269.331C407.29 270.046 406.699 270.664 406.051 271.035L357.968 298.763C357.557 298.999 357.168 299.112 356.823 299.112Z" fill="#F2F2F2"/>
<path d="M357.222 298.378C356.38 298.378 355.801 297.707 355.801 296.548L355.797 231.312C355.797 230.667 355.977 229.969 356.28 229.307C356.396 229.054 356.529 228.808 356.678 228.574C356.374 229.234 356.196 229.934 356.196 230.579L356.198 295.815C356.198 296.974 356.777 297.645 357.621 297.645C357.965 297.645 358.355 297.534 358.766 297.297L406.849 269.57C407.497 269.196 408.088 268.58 408.54 267.865C408.423 268.117 408.29 268.363 408.141 268.598C407.689 269.313 407.098 269.929 406.452 270.303L358.367 298.03C357.956 298.267 357.566 298.378 357.222 298.378Z" fill="#EDEDED"/>
<path d="M357.62 297.645C356.777 297.645 356.197 296.974 356.197 295.815L356.195 230.579C356.195 229.934 356.373 229.234 356.677 228.573C356.792 228.321 356.925 228.075 357.074 227.84C356.771 228.501 356.593 229.201 356.593 229.844L356.597 295.08C356.597 296.241 357.174 296.912 358.017 296.912C358.362 296.912 358.751 296.8 359.162 296.562L407.246 268.836C407.893 268.463 408.484 267.845 408.937 267.13C408.821 267.382 408.688 267.628 408.539 267.865C408.087 268.58 407.496 269.196 406.848 269.569L358.765 297.297C358.354 297.533 357.965 297.645 357.62 297.645Z" fill="#EAEAEA"/>
<path d="M358.019 296.912C357.175 296.912 356.598 296.241 356.598 295.08L356.594 229.844C356.594 229.201 356.772 228.501 357.075 227.84C357.191 227.588 357.326 227.342 357.474 227.105C357.171 227.768 356.991 228.468 356.991 229.111L356.995 294.347C356.995 295.508 357.574 296.179 358.416 296.179C358.762 296.179 359.15 296.065 359.563 295.829L407.646 268.101C408.292 267.73 408.883 267.112 409.335 266.397C409.22 266.649 409.086 266.895 408.938 267.13C408.486 267.845 407.895 268.463 407.247 268.836L359.164 296.562C358.753 296.8 358.363 296.912 358.019 296.912" fill="#E5E5E5"/>
<path d="M358.415 296.179C357.573 296.179 356.994 295.508 356.994 294.347L356.99 229.111C356.99 228.468 357.17 227.768 357.474 227.105C357.589 226.855 357.722 226.609 357.871 226.374C357.568 227.035 357.388 227.733 357.388 228.378L357.391 293.614C357.391 294.773 357.971 295.446 358.814 295.446C359.159 295.446 359.548 295.332 359.959 295.096L408.042 267.368C408.69 266.995 409.281 266.379 409.731 265.664C409.616 265.916 409.483 266.162 409.334 266.397C408.882 267.112 408.291 267.73 407.645 268.101L359.562 295.829C359.149 296.065 358.761 296.179 358.415 296.179" fill="#E1E1E1"/>
<path d="M358.813 295.446C357.97 295.446 357.391 294.773 357.391 293.614L357.387 228.378C357.387 227.733 357.567 227.035 357.87 226.374C357.986 226.122 358.119 225.876 358.267 225.639C357.964 226.302 357.786 227 357.786 227.643L357.79 292.881C357.79 294.04 358.369 294.711 359.211 294.711C359.555 294.711 359.945 294.599 360.356 294.363L408.439 266.635C409.087 266.262 409.678 265.646 410.13 264.931C410.014 265.183 409.879 265.429 409.731 265.664C409.28 266.379 408.689 266.995 408.042 267.368L359.958 295.096C359.547 295.332 359.158 295.446 358.813 295.446Z" fill="#DCDCDD"/>
<path d="M359.212 294.71C358.37 294.71 357.791 294.04 357.791 292.881L357.787 227.643C357.787 226.999 357.965 226.302 358.269 225.639C358.384 225.389 358.519 225.143 358.668 224.906C358.364 225.567 358.184 226.266 358.184 226.91L358.188 292.148C358.188 293.307 358.768 293.977 359.611 293.977C359.956 293.977 360.345 293.866 360.756 293.628L408.837 265.902C409.485 265.529 410.076 264.913 410.528 264.198C410.413 264.45 410.28 264.696 410.131 264.931C409.679 265.646 409.088 266.262 408.44 266.635L360.357 294.363C359.946 294.599 359.556 294.71 359.212 294.71" fill="#D8D8D8"/>
<path d="M359.61 293.978C358.767 293.978 358.187 293.308 358.187 292.148L358.184 226.91C358.184 226.267 358.364 225.567 358.667 224.907C358.782 224.654 358.916 224.41 359.064 224.174C358.761 224.834 358.581 225.534 358.581 226.177L358.585 291.413C358.585 292.575 359.164 293.245 360.008 293.245C360.352 293.245 360.742 293.134 361.153 292.895L409.236 265.168C409.884 264.796 410.475 264.179 410.925 263.465C410.809 263.715 410.676 263.962 410.528 264.198C410.075 264.914 409.484 265.529 408.837 265.903L360.755 293.628C360.344 293.867 359.955 293.978 359.61 293.978" fill="#D4D4D4"/>
<path d="M360.009 293.245C359.165 293.245 358.586 292.574 358.586 291.413L358.582 226.177C358.582 225.534 358.762 224.834 359.065 224.173C359.533 223.157 360.295 222.228 361.154 221.734L409.237 194.008C409.65 193.77 410.039 193.656 410.386 193.656C411.227 193.656 411.807 194.327 411.807 195.486L411.809 260.722C411.809 261.614 411.466 262.609 410.926 263.465C410.476 264.178 409.885 264.796 409.237 265.167L361.154 292.895C360.743 293.133 360.353 293.245 360.009 293.245" fill="#CFCFCF"/>
<path d="M411.809 260.722C411.809 262.358 410.658 264.35 409.237 265.167L361.154 292.895C359.737 293.712 358.586 293.047 358.586 291.413L358.582 226.177C358.582 224.543 359.737 222.551 361.154 221.734L409.237 194.008C410.656 193.187 411.807 193.852 411.807 195.486L411.809 260.722" fill="#EEEBFC"/>
<path d="M392.168 271.088C392.168 271.835 392.691 272.134 393.336 271.76C393.982 271.391 394.507 270.486 394.507 269.739C394.507 268.994 393.982 268.693 393.336 269.067C392.691 269.438 392.168 270.345 392.168 271.088Z" fill="#206FBE"/>
<path d="M388.117 273.447C388.117 274.19 388.642 274.493 389.288 274.122C389.935 273.748 390.456 272.845 390.456 272.1C390.456 271.356 389.935 271.053 389.288 271.426C388.642 271.797 388.117 272.702 388.117 273.447Z" fill="white"/>
<path d="M384.068 275.805C384.068 276.552 384.589 276.853 385.239 276.481C385.883 276.106 386.405 275.203 386.405 274.458C386.405 273.713 385.883 273.412 385.239 273.784C384.589 274.157 384.068 275.06 384.068 275.805Z" fill="#232846"/>
<path d="M376.459 269.641C376.459 271.678 377.89 272.503 379.657 271.483L394.741 262.788C396.506 261.77 397.939 259.295 397.939 257.256C397.939 255.222 396.506 254.397 394.741 255.415L379.657 264.114C377.89 265.13 376.459 267.607 376.459 269.641Z" fill="#206FBE"/>
<path d="M396.111 208.057C396.111 208.762 396.607 209.05 397.219 208.694L407.357 202.967C407.97 202.613 408.465 201.755 408.465 201.045C408.465 200.341 407.97 200.054 407.357 200.406L397.219 206.135C396.607 206.491 396.111 207.349 396.111 208.057Z" fill="#C8C5D8"/>
<path d="M396.111 213.127C396.111 213.835 396.607 214.122 397.219 213.768L407.357 208.041C407.97 207.685 408.465 206.825 408.465 206.122C408.465 205.414 407.97 205.127 407.357 205.481L397.219 211.21C396.607 211.564 396.111 212.422 396.111 213.127Z" fill="#C8C5D8"/>
<path d="M397.445 229.484C397.445 236.734 392.351 245.546 386.066 249.17C379.782 252.792 374.687 249.856 374.687 242.608C374.687 235.362 379.782 226.548 386.066 222.924C392.351 219.302 397.445 222.238 397.445 229.484Z" fill="#206FBE"/>
<path d="M382.066 234.512L379.336 237.041L384.227 244.451L393.586 230.387L396.113 229.627L391.985 229.036L384.732 237.797L382.066 234.512Z" fill="white"/>
<path d="M416.506 340.549C413.731 341.561 409.987 338.559 408.143 333.844C406.299 329.125 407.055 324.479 409.832 323.465C412.609 322.452 416.353 325.456 418.197 330.173C420.039 334.89 419.285 339.536 416.506 340.549Z" fill="white"/>
<path d="M416.606 407.36C415.569 407.36 414.534 407.132 413.745 406.674L354.641 372.369C353.062 371.452 353.064 369.967 354.655 369.05L367.783 361.409L413.745 388.085C414.534 388.544 415.569 388.773 416.606 388.773C417.644 388.773 418.681 388.544 419.476 388.085L489.097 347.572L502.245 355.203C503.827 356.122 503.813 357.605 502.228 358.518L419.476 406.674C418.681 407.132 417.644 407.36 416.606 407.36" fill="#C3CFDA"/>
<path d="M243.57 466.486C242.532 466.486 241.497 466.258 240.706 465.8L181.604 431.495C180.024 430.578 180.027 429.093 181.617 428.174L264.368 380.024C265.161 379.567 266.2 379.338 267.238 379.338C268.277 379.338 269.316 379.567 270.107 380.026L329.207 414.329C330.788 415.246 330.774 416.731 329.189 417.644L246.439 465.8C245.644 466.258 244.605 466.486 243.57 466.486Z" fill="#C3CFDA"/>
<path d="M353.53 352.547L353.543 352.594C353.586 352.719 353.655 352.846 353.737 352.967C353.751 352.99 353.766 353.014 353.782 353.035C353.87 353.158 353.978 353.278 354.105 353.391C354.189 353.467 354.297 353.538 354.399 353.608C354.481 353.667 354.549 353.727 354.641 353.782L413.745 388.085L413.757 392.708L354.655 358.405L354.606 358.376C354.528 358.327 354.473 358.274 354.402 358.225C354.305 358.157 354.201 358.09 354.119 358.014L354.089 357.994C353.993 357.908 353.911 357.816 353.837 357.723C353.821 357.703 353.811 357.682 353.796 357.662C353.778 357.639 353.764 357.617 353.749 357.594C353.725 357.557 353.696 357.519 353.674 357.482C353.631 357.406 353.596 357.328 353.567 357.25L353.555 357.214L353.543 357.171C353.526 357.121 353.51 357.072 353.5 357.023C353.486 356.945 353.477 356.866 353.473 356.788V356.755L353.461 352.13C353.461 352.269 353.486 352.408 353.53 352.547" fill="#206FBE"/>
<path d="M413.746 388.085C413.991 388.226 414.265 388.339 414.547 388.437C414.644 388.47 414.744 388.5 414.844 388.529C414.981 388.566 415.12 388.603 415.261 388.632C415.419 388.662 415.578 388.693 415.742 388.713C415.785 388.72 415.827 388.726 415.87 388.73C416.095 388.756 416.322 388.767 416.551 388.769C416.586 388.769 416.623 388.771 416.656 388.769C416.881 388.767 417.107 388.756 417.328 388.732C417.363 388.73 417.396 388.726 417.429 388.72C417.651 388.695 417.87 388.656 418.083 388.609C418.12 388.599 418.158 388.591 418.197 388.582C418.39 388.533 418.578 388.476 418.764 388.408C418.794 388.398 418.827 388.388 418.858 388.376C419.075 388.292 419.283 388.195 419.477 388.085L502.229 339.931C503.027 339.472 503.427 338.866 503.425 338.262L503.438 342.887C503.44 343.491 503.041 344.097 502.243 344.556L419.49 392.708C419.306 392.816 419.109 392.909 418.903 392.99L418.87 393.001C418.841 393.013 418.807 393.023 418.776 393.033C418.657 393.076 418.537 393.12 418.412 393.158C418.343 393.177 418.275 393.189 418.206 393.206C418.169 393.216 418.132 393.224 418.097 393.232C418.06 393.242 418.024 393.251 417.987 393.259C417.856 393.287 417.721 393.31 417.586 393.328C417.537 393.336 417.49 393.339 417.443 393.345C417.408 393.349 417.375 393.353 417.341 393.357C417.292 393.363 417.244 393.369 417.195 393.375C417.06 393.384 416.926 393.392 416.795 393.394C416.752 393.396 416.711 393.394 416.67 393.394C416.633 393.394 416.6 393.394 416.564 393.394C416.504 393.392 416.441 393.396 416.38 393.392C416.232 393.386 416.081 393.379 415.932 393.363L415.883 393.357C415.84 393.351 415.797 393.343 415.754 393.339C415.643 393.324 415.529 393.312 415.416 393.291C415.367 393.283 415.322 393.265 415.275 393.255C415.132 393.226 414.995 393.189 414.86 393.152C414.789 393.132 414.717 393.122 414.648 393.101C414.617 393.089 414.592 393.072 414.56 393.062C414.277 392.964 414.003 392.851 413.758 392.708L413.746 388.085" fill="#195DA0"/>
<path d="M354.655 350.461C353.064 351.379 353.062 352.865 354.641 353.782L413.745 388.085C415.324 389.002 417.886 389.002 419.476 388.085L502.228 339.931C503.813 339.016 503.827 337.532 502.245 336.616L443.143 302.312C441.564 301.394 438.992 301.394 437.407 302.309L354.655 350.461Z" fill="#56A6E8"/>
<path d="M399.537 372.297C402.31 373.309 406.056 370.307 407.898 365.592C409.742 360.873 408.988 356.227 406.211 355.213C403.434 354.2 399.69 357.205 397.846 361.921C396.002 366.638 396.758 371.284 399.537 372.297Z" fill="white"/>
<path d="M453.889 333.291C455.733 328.574 459.479 325.57 462.256 326.584C465.031 327.597 465.787 332.245 463.945 336.962C462.103 341.679 458.358 344.681 455.582 343.666C452.805 342.654 452.048 338.01 453.889 333.291ZM451.59 343.866C456.438 346.108 462.062 343.461 464.595 337.793C467.126 332.126 465.18 325.855 460.248 323.789C455.316 321.725 451.053 323.535 448.521 329.204C445.99 334.87 445.225 340.922 451.59 343.866Z" fill="#191C3A"/>
<path d="M456.318 334.28C455.434 336.535 455.796 338.754 457.123 339.239C458.45 339.724 460.238 338.289 461.121 336.035C462.002 333.779 461.642 331.559 460.315 331.074C458.988 330.589 457.197 332.026 456.318 334.28" fill="#191C3A"/>
<path d="M465.703 320.64C465.703 320.64 457.027 326.705 454.565 330.394C452.103 334.084 450.236 336.827 447.962 337.693C445.689 338.561 441.251 340.318 439.215 339.137L428.1 332.681C428.1 332.681 426.075 328.51 427.721 324.491C429.365 320.476 440.102 307.85 446.39 306.21C452.678 304.57 459.982 308.752 462.938 312.851C465.893 316.952 465.703 320.64 465.703 320.64" fill="#145993"/>
<path d="M459.209 310.295C459.209 310.295 460.062 311.523 459.505 312.663C458.945 313.8 440.323 326.82 437.806 326.635C435.291 326.447 431.648 321.355 431.648 321.355L437.494 311.636L444.822 308.73L459.209 310.295" fill="#191C3A"/>
<path d="M439.216 339.137L428.101 332.681C428.101 332.681 423.259 339.049 419.92 340.216C416.581 341.383 413.162 339.137 413.162 339.137C413.162 339.137 413.536 355.949 423.674 354.308C433.814 352.662 442.279 345.918 442.279 343.234C442.279 340.548 439.216 339.137 439.216 339.137" fill="#11517C"/>
<path d="M421.002 343.583C421.002 343.583 422.041 345.909 420.358 346.636C418.673 347.367 412.968 348.993 412.193 348.278C411.417 347.56 410.914 346.683 412.832 345.772C414.749 344.859 415.616 344.28 416.027 343.954C416.438 343.628 416.712 343.278 417.076 343.954C417.442 344.63 419.446 345.451 421.002 343.583" fill="#2A2D59"/>
<path d="M420.593 342.388C420.593 342.388 420.858 344.442 419.666 344.784C418.472 345.125 417.215 344.552 417.077 343.954C416.94 343.354 417.077 342.671 417.077 342.671C417.077 342.671 419.543 343.363 420.593 342.388Z" fill="#FF9797"/>
<path d="M441.791 316.445C441.791 316.445 443.065 321.394 440.932 322.964C438.797 324.534 429.064 329.782 429.119 330.98C429.175 332.177 428.896 333.484 428.555 337.661C428.213 341.839 427.721 345.25 427.721 345.25C427.721 345.25 426.792 345.93 425.496 345.93C424.202 345.93 423.603 345.334 423.603 345.334C423.603 345.334 423.351 333.824 422.539 330.499C421.725 327.178 422.75 324.508 424.627 322.688C426.506 320.869 427.721 320.27 427.721 320.27C427.721 320.27 423.036 323.302 422.539 324.428C422.042 325.552 421.319 333.813 420.957 336.721C420.629 339.374 420.676 342.861 420.676 342.861C420.676 342.861 417.857 344.151 417.018 343.549C416.178 342.945 416.47 326.156 416.094 322.688C415.716 319.221 419.938 316.212 421.985 315.259C424.03 314.301 425.933 313.374 425.933 313.374C425.933 313.374 432.325 320.206 441.791 316.445" fill="#2A2D59"/>
<path d="M396.784 341.848C396.968 343.291 397.375 344.513 398.083 345.654C399.761 348.397 403.184 350.652 409.556 354.247C409.595 354.266 409.625 354.286 409.664 354.308C418.614 359.323 423.883 357.715 430.815 354.247C437.79 350.77 442.348 347.106 445.472 343.989C448.594 340.859 462.532 330.331 464.413 328.82C466.284 327.299 465.568 325.245 465.568 325.245C465.568 325.245 457.886 331.494 451.097 335.959C444.307 340.414 439.215 339.137 439.215 339.137C439.215 339.137 441.63 341.848 440.293 344.694C438.943 347.554 426.801 354.779 421.35 352.91C415.899 351.031 416.532 339.436 418.131 335.513C419.739 331.58 421.971 325.429 420.372 320.161C419.925 318.687 419.043 317.524 418.003 316.603C415.328 314.213 411.613 313.476 411.613 313.476C410.576 313.243 409.451 313.27 408.306 313.523C404.638 314.318 400.876 317.389 399.643 321.41C398.035 326.678 396.164 336.936 396.784 341.848" fill="#206FBE"/>
<path d="M410.926 311.296L404.979 307.567C404.979 307.567 406.045 306.091 406.695 306.15C407.347 306.206 411.533 308.394 411.533 308.394L410.926 311.296Z" fill="#206FBE"/>
<mask id="mask0_250_477" style="mask-type:alpha" maskUnits="userSpaceOnUse" x="398" y="313" width="21" height="42">
<path d="M409.664 354.308C409.625 354.286 409.596 354.267 409.557 354.247C403.184 350.652 399.761 348.397 398.084 345.654C398.246 342.167 398.814 334.078 400.624 326.461L405.746 329.819C405.746 329.819 406.048 330.12 406.686 330.12C407.005 330.12 407.408 330.046 407.901 329.819C409.381 329.143 410.49 328.529 410.49 328.529L411.414 322.688C411.414 322.688 411.379 321.791 410.984 321.51C410.984 321.51 407.482 319.002 404.697 317.516C405.956 315.771 407.255 314.449 408.306 313.523C408.923 313.388 409.533 313.317 410.126 313.317C410.637 313.317 411.134 313.368 411.614 313.476C411.614 313.476 415.328 314.213 418.004 316.603V316.613C418.004 316.613 411.643 322.008 409.799 334.505C408.277 344.831 409.265 352.097 409.664 354.308" fill="white"/>
</mask>
<g mask="url(#mask0_250_477)">
<path d="M409.664 354.308C409.625 354.286 409.596 354.267 409.557 354.247C403.184 350.652 399.761 348.397 398.084 345.654C398.246 342.167 398.814 334.078 400.624 326.461L405.746 329.819C405.746 329.819 406.048 330.12 406.686 330.12C407.005 330.12 407.408 330.046 407.901 329.819C409.381 329.143 410.49 328.529 410.49 328.529L411.414 322.688C411.414 322.688 411.379 321.791 410.984 321.51C410.984 321.51 407.482 319.002 404.697 317.516C405.956 315.771 407.255 314.449 408.306 313.523C408.923 313.388 409.533 313.317 410.126 313.317C410.637 313.317 411.134 313.368 411.614 313.476C411.614 313.476 415.328 314.213 418.004 316.603V316.613C418.004 316.613 411.643 322.008 409.799 334.505C408.277 344.831 409.265 352.097 409.664 354.308" fill="url(#paint0_linear_250_477)"/>
</g>
<path d="M465.704 320.927C465.704 320.927 466.577 323.732 465.569 325.245C465.569 325.245 455.697 332.833 453.632 334.241C451.565 335.65 449.301 337.226 449.301 337.226C449.301 337.226 451.957 332.39 455.603 328.281C459.253 324.174 465.704 320.927 465.704 320.927" fill="#56A6E8"/>
<path d="M397.847 361.921C399.691 357.205 403.435 354.2 406.212 355.213C408.989 356.227 409.743 360.873 407.899 365.592C406.057 370.307 402.311 373.309 399.538 372.297C396.759 371.284 396.004 366.638 397.847 361.921ZM395.544 372.494C400.393 374.736 406.018 372.09 408.551 366.423C411.081 360.756 409.136 354.486 404.206 352.419C399.272 350.353 395.009 352.165 392.477 357.832C389.946 363.499 389.179 369.552 395.544 372.494Z" fill="#191C3A"/>
<path d="M400.275 362.908C399.394 365.164 399.754 367.385 401.081 367.869C402.406 368.354 404.197 366.917 405.078 364.664C405.96 362.41 405.602 360.187 404.273 359.703C402.946 359.22 401.156 360.655 400.275 362.908" fill="#191C3A"/>
<path d="M409.226 350.937C409.226 350.937 402.816 348.23 400.933 346.649C399.051 345.066 397.228 343.83 397.228 343.83C397.228 343.83 392.635 347.001 390.416 350.937C388.196 354.874 386.466 359.771 392.384 361.356C398.305 362.939 400.141 356.391 402.677 354.417C405.214 352.447 409.558 354.247 409.558 354.247L409.226 350.937" fill="#145993"/>
<path d="M463.899 314.354L465.705 312.303C465.705 312.303 464.061 308.529 460.172 307.018C456.284 305.507 453.305 306.425 453.305 306.425C453.305 306.425 460.715 309.717 463.899 314.354" fill="#206FBE"/>
<path d="M410.984 321.51C410.984 321.51 403.569 316.197 401.731 316.453C399.891 316.709 398.29 318.187 398.29 318.187L397.682 324.53L405.747 329.819C405.747 329.819 406.424 330.497 407.902 329.819C409.381 329.143 410.491 328.529 410.491 328.529L411.415 322.688C411.415 322.688 411.38 321.791 410.984 321.51" fill="#145993"/>
<mask id="mask1_250_477" style="mask-type:alpha" maskUnits="userSpaceOnUse" x="398" y="318" width="11" height="12">
<path d="M406.907 329.692C406.749 329.692 406.549 329.645 406.3 329.526L398.787 324.678C398.787 324.678 398.067 324.432 398.025 323.883L398.656 318.9C398.656 318.9 398.767 318.468 399.225 318.468C399.384 318.468 399.583 318.521 399.836 318.66L407.071 322.688C407.071 322.688 408.152 323.075 408.052 324.227L407.549 329.076C407.549 329.076 407.488 329.692 406.907 329.692" fill="white"/>
</mask>
<g mask="url(#mask1_250_477)">
<path d="M406.907 329.692C406.749 329.692 406.549 329.645 406.3 329.526L398.787 324.678C398.787 324.678 398.067 324.432 398.025 323.883L398.656 318.9C398.656 318.9 398.767 318.468 399.225 318.468C399.384 318.468 399.583 318.521 399.836 318.66L407.071 322.688C407.071 322.688 408.152 323.075 408.052 324.227L407.549 329.076C407.549 329.076 407.488 329.692 406.907 329.692" fill="url(#paint1_linear_250_477)"/>
</g>
<path d="M423.11 311.257V314.644L420.157 316.251C420.157 316.251 418.695 317.055 417.335 316.445L411.663 313.374C411.663 313.374 411.166 313.118 411.062 312.49C410.957 311.865 410.931 309.332 410.931 309.332C410.931 309.332 410.827 308.835 411.532 308.393C412.239 307.95 414.683 306.599 414.683 306.599L423.11 311.257" fill="#206FBE"/>
<mask id="mask2_250_477" style="mask-type:alpha" maskUnits="userSpaceOnUse" x="411" y="307" width="12" height="7">
<path d="M422.539 311.637L414.585 307.217L411.615 308.945C411.615 308.945 410.787 309.604 412.069 310.266L416.983 313.116C416.983 313.116 418.065 313.695 419.68 313.116C421.293 312.54 422.539 311.637 422.539 311.637V311.637Z" fill="white"/>
</mask>
<g mask="url(#mask2_250_477)">
<path d="M422.539 311.637L414.585 307.217L411.615 308.945C411.615 308.945 410.787 309.604 412.069 310.266L416.983 313.116C416.983 313.116 418.065 313.695 419.68 313.116C421.293 312.54 422.539 311.637 422.539 311.637" fill="url(#paint2_linear_250_477)"/>
</g>
<path d="M448.602 294.388V316.445L472.107 302.821V280.96L448.602 294.388Z" fill="#D7D3EF"/>
<path d="M448.6 294.388L429.516 283.213V305.632L448.6 316.445V294.388Z" fill="#BAB8C9"/>
<path d="M472.107 280.959V274.982L448.602 288.063V294.388L472.107 280.959" fill="#C3C0E2"/>
<path d="M429.516 283.213V277.062L448.6 288.063V294.388L429.516 283.213Z" fill="#9190A5"/>
<path d="M472.105 274.982L452.416 263.981L429.516 277.062L448.6 288.063L472.105 274.982Z" fill="#EEEBFC"/>
<path d="M438.653 283.477V287.066C438.653 287.066 436.455 289.439 434.085 289.022C431.714 288.608 432.309 288.063 432.309 288.063L431.895 285.404C431.895 285.404 438.565 282.836 438.653 283.477" fill="#ED7A7A"/>
<path d="M439.807 288.485C439.807 288.485 444.248 290.913 445.268 293.382C446.289 295.851 445.264 306.6 445.264 306.6L442.807 307.217L442.312 316.096C442.312 316.096 440.173 317.923 435.12 317.868C430.068 317.816 425.931 313.734 425.931 313.734V299.346C425.931 299.346 423.784 299.615 423.109 298.918C422.436 298.22 422.436 298.22 422.436 298.22C422.436 298.22 424.048 291.992 424.96 290.006C425.876 288.02 427.005 286.793 428.563 286.226C430.121 285.657 431.998 286.226 431.998 286.226C431.998 286.226 432.08 288.458 433.413 288.884C434.746 289.308 438.651 288.063 438.651 288.063L439.807 288.485" fill="#56A6E8"/>
<path d="M438.653 287.066C438.653 287.066 437.232 288.117 435.897 288.438C434.562 288.76 433.678 288.944 433.678 288.944C433.678 288.944 434.652 289.403 434.928 290.185C435.206 290.965 435.574 291.702 435.574 291.702C435.574 291.702 439.809 288.805 439.809 288.485C439.809 288.16 438.653 287.066 438.653 287.066" fill="#145993"/>
<path d="M431.944 285.725C431.944 285.725 431.202 285.803 430.879 286.225C430.556 286.646 430.718 286.909 430.546 288.063C430.372 289.222 430.546 289.542 430.546 289.542C430.546 289.542 431.985 288.467 432.832 288.706C432.832 288.706 432.041 287.242 431.944 285.725" fill="#145993"/>
<path d="M429.516 281.337C429.516 281.337 430.06 281.868 430.06 282.222C430.06 282.574 429.964 283.659 430.35 283.979C430.733 284.304 431.725 287.232 432.784 287.361C433.843 287.49 437.113 284.914 438.045 283.471C438.977 282.029 439.073 279.018 436.636 278.571C434.197 278.121 429.516 281.337 429.516 281.337" fill="#FF9797"/>
<path d="M436.888 279.882C436.184 279.597 435.383 280.846 432.99 280.305C430.596 279.765 427.275 278.495 427.353 276.798C427.429 275.101 427.351 269.937 434.187 269.511C440.752 269.1 442.605 273.817 442.914 277.062C443.221 280.307 440.82 283.577 440.82 283.577C440.82 283.577 438.742 284.693 437.853 283.213C436.964 281.734 438.317 280.459 436.888 279.882" fill="#56A6E8"/>
<path d="M427.351 277.062C427.351 277.062 425.629 278.176 426.33 279.37C427.032 280.563 430.945 283.01 434.928 280.365C434.928 280.365 429.982 280.193 427.351 277.062Z" fill="#145993"/>
<path d="M422.54 314.342L429.807 317.682C429.807 317.682 428.717 319.17 427.722 319.228C426.726 319.287 420.227 315.688 420.227 315.688C420.227 315.688 421.142 314.252 422.54 314.342Z" fill="#206FBE"/>
<path d="M425.932 300.772C425.932 300.772 423.845 303.261 423.11 303.591C422.376 303.921 411.247 307.842 410.924 308.396C410.599 308.947 408.942 309.443 408.832 310.548C408.719 311.652 408.167 311.953 406.951 311.637C405.736 311.322 404.546 309.793 405.62 307.972C406.693 306.148 408.981 306.848 410.924 305.524C412.866 304.199 420.552 299.93 420.994 299.828C421.436 299.727 422.436 298.219 422.436 298.219C422.436 298.219 423.202 299.236 424.031 299.314C424.863 299.394 425.932 299.345 425.932 299.345V300.772" fill="#FF9797"/>
<path d="M435.272 309.103H435.274H435.272ZM435.274 309.103C435.303 309.084 435.904 308.669 436.741 307.217C437.37 306.136 437.587 303.998 437.926 301.355L438.121 299.901C438.198 299.353 438.284 298.792 438.382 298.22C439.074 294.187 439.808 293.21 439.808 293.21C439.808 293.21 439.362 294.478 439.059 297.588C438.753 300.698 438.652 306.852 438.652 306.852L435.274 309.103" fill="#3C87C6"/>
<path d="M436.197 317.888C435.864 317.888 435.635 317.874 435.566 317.868C437.189 317.85 438.492 317.635 439.504 317.364C438.289 317.811 436.964 317.888 436.197 317.888Z" fill="#213F70"/>
<path d="M435.566 317.868C435.553 317.868 435.547 317.866 435.547 317.866C435.547 317.866 437.43 317.309 439.258 316.445C441.088 315.577 441.41 315.161 441.41 313.734C441.41 312.309 440.716 311.296 440.716 311.296L442.638 310.296L442.315 316.095C442.315 316.095 441.385 316.666 439.526 317.354C439.52 317.358 439.512 317.36 439.504 317.364C438.492 317.636 437.189 317.851 435.566 317.868" fill="#3C87C6"/>
<path d="M425.932 299.345L424.031 299.314C424.031 299.314 425.08 298.46 425.36 295.023C425.638 291.587 426.687 289.071 426.687 289.071C426.687 289.071 425.803 292.175 425.932 294.982C426.057 297.789 425.932 299.345 425.932 299.345" fill="#3C87C6"/>
<path d="M429.118 296.581C427.264 295.608 425.932 294.633 425.932 294.633L425.967 293.21C425.967 293.21 430.437 295.897 433.245 297.183C436.052 298.472 438.131 299.828 438.131 299.828L437.896 301.574C437.896 301.574 430.973 297.557 429.118 296.581" fill="#145993"/>
<path d="M429.516 316.144H429.252C429.252 316.144 429.622 308.3 429.806 304.987C429.915 303.02 430.276 300.131 430.71 297.457C430.812 297.514 430.914 297.57 431.019 297.629C430.8 299.021 430.606 300.479 430.467 301.922C429.849 308.396 429.516 315.718 429.516 315.718V316.144M431.254 296.194C431.154 296.142 431.053 296.089 430.953 296.034C431.182 294.744 431.422 293.559 431.649 292.627C432.411 289.513 432.832 288.706 432.832 288.706C432.832 288.706 431.98 292 431.254 296.194Z" fill="#3C87C6"/>
<path d="M431.02 297.629C430.914 297.57 430.812 297.514 430.711 297.457C430.789 296.974 430.871 296.497 430.953 296.034C431.053 296.089 431.155 296.141 431.255 296.194C431.175 296.663 431.096 297.142 431.02 297.629" fill="#145993"/>
<path d="M444.561 306.777C444.561 306.777 441.408 307.643 439.845 307.217C438.279 306.793 438.653 306.851 438.653 306.851C438.653 306.851 436.349 308.433 433.429 310.295C430.505 312.156 427.372 314.046 426.646 314.353C425.917 314.66 424.403 314.762 424.195 315.804C423.986 316.848 423.831 318.108 424.716 318.468C425.604 318.828 426.434 319.678 427.076 319.451C427.722 319.228 427.871 317.022 428.89 316.672C429.91 316.324 442.04 310.802 442.637 310.295C443.236 309.787 444.561 306.777 444.561 306.777" fill="#FF9797"/>
<path d="M445.45 304.344C445.45 304.344 444.035 304.907 441.79 304.987C439.547 305.071 438.696 304.94 438.696 304.94L438.652 306.852C438.652 306.852 439.846 307.549 442.637 307.217C445.43 306.887 445.43 306.887 445.43 306.887L445.45 304.344Z" fill="#145993"/>
<path d="M422.873 296.591C422.873 296.591 423.897 297.717 424.777 298C425.658 298.286 425.977 298.219 425.977 298.219V299.828C425.977 299.828 424.141 299.812 423.29 299.017C422.437 298.219 421.959 298.209 421.959 298.209L422.873 296.591" fill="#145993"/>
<path d="M428.13 346.442C428.13 346.442 429.169 348.768 427.484 349.497C425.803 350.228 420.096 351.856 419.321 351.139C418.546 350.422 418.045 349.542 419.961 348.631C421.877 347.718 422.744 347.14 423.155 346.815C423.566 346.489 423.842 346.139 424.206 346.815C424.57 347.49 426.574 348.31 428.13 346.442" fill="#2A2D59"/>
<path d="M427.721 345.25C427.721 345.25 427.986 347.304 426.794 347.644C425.6 347.984 424.345 347.413 424.206 346.815C424.067 346.215 424.206 345.535 424.206 345.535C424.206 345.535 426.67 346.223 427.721 345.25" fill="#FF9797"/>
<path d="M79.0038 399.493C77.9665 399.493 76.9283 399.262 76.1325 398.805L25.3625 369.527C23.7772 368.614 23.7633 367.131 25.3439 366.212L84.4459 331.909C85.2366 331.45 86.2758 331.221 87.3153 331.221C88.3529 331.221 89.391 331.449 90.1831 331.907L140.953 361.182C142.543 362.099 142.547 363.583 140.967 364.502L132.295 369.535L119.955 362.281L119.161 363.628L130.742 370.436L81.8644 398.805C81.0747 399.262 80.0397 399.493 79.0038 399.493Z" fill="#C3CFDA"/>
<path d="M130.741 370.436L119.16 363.628L119.954 362.281L132.294 369.535L130.741 370.436" fill="#458CC9"/>
<path d="M142.077 344.677L142.064 344.722C142.02 344.851 141.953 344.976 141.871 345.099C141.856 345.122 141.841 345.144 141.825 345.167C141.736 345.29 141.628 345.41 141.502 345.523C141.417 345.599 141.31 345.668 141.209 345.74C141.126 345.799 141.057 345.859 140.965 345.914L81.8627 380.215L81.8496 384.842L140.951 350.535C140.969 350.527 140.985 350.515 141.002 350.505C141.08 350.461 141.135 350.406 141.204 350.357C141.302 350.288 141.407 350.22 141.49 350.146L141.517 350.126C141.612 350.038 141.697 349.946 141.769 349.853C141.785 349.833 141.796 349.812 141.811 349.792C141.828 349.77 141.842 349.747 141.858 349.726C141.882 349.686 141.912 349.649 141.933 349.612C141.976 349.536 142.011 349.46 142.041 349.382L142.051 349.346L142.064 349.303C142.08 349.253 142.097 349.204 142.107 349.153C142.122 349.077 142.131 348.998 142.133 348.92L142.134 348.885L142.147 344.262C142.147 344.401 142.12 344.538 142.077 344.677Z" fill="#206FBE"/>
<path d="M81.864 380.215C81.6197 380.356 81.3459 380.472 81.0625 380.569C80.9649 380.602 80.8649 380.63 80.7637 380.659C80.6277 380.696 80.4901 380.733 80.3484 380.763C80.19 380.796 80.03 380.825 79.8661 380.845C79.8245 380.851 79.7828 380.859 79.7405 380.862C79.5152 380.886 79.2868 380.9 79.0592 380.902C79.0232 380.902 78.988 380.902 78.9525 380.902C78.7271 380.9 78.503 380.886 78.2807 380.862C78.2474 380.86 78.2133 380.859 78.1801 380.851C77.9581 380.827 77.7397 380.788 77.5262 380.739C77.4882 380.731 77.4514 380.722 77.4142 380.712C77.2197 380.665 77.03 380.606 76.8466 380.54C76.8157 380.53 76.7825 380.518 76.7519 380.509C76.5337 380.423 76.3251 380.327 76.1321 380.215L25.3621 350.94C24.5639 350.48 24.1641 349.875 24.1655 349.271L24.1523 353.895C24.151 354.499 24.5504 355.103 25.3488 355.565L76.1192 384.842C76.3028 384.946 76.4995 385.04 76.7059 385.122L76.7388 385.133C76.7691 385.145 76.8016 385.153 76.8328 385.163C76.9527 385.208 77.0733 385.253 77.1987 385.288C77.2651 385.305 77.3342 385.321 77.4023 385.337C77.4393 385.347 77.4751 385.354 77.5129 385.364C77.5491 385.372 77.5851 385.382 77.6217 385.391C77.7536 385.419 77.8877 385.44 78.0233 385.46C78.0708 385.468 78.119 385.472 78.1669 385.477C78.2008 385.479 78.2339 385.485 78.2677 385.487C78.3171 385.493 78.3662 385.501 78.4165 385.505C78.5486 385.515 78.6815 385.524 78.8144 385.526C78.8561 385.526 78.8975 385.524 78.9392 385.524C78.9749 385.526 79.0103 385.524 79.0459 385.524C79.1068 385.524 79.1674 385.526 79.2283 385.524C79.3784 385.517 79.5283 385.509 79.6763 385.495L79.7266 385.487C79.7698 385.483 79.8111 385.474 79.8544 385.47C79.9677 385.456 80.0816 385.442 80.1928 385.421C80.2421 385.413 80.2871 385.395 80.3355 385.388C80.4774 385.358 80.614 385.321 80.7508 385.284C80.8193 385.262 80.8929 385.255 80.9602 385.231C80.9921 385.219 81.0177 385.202 81.0492 385.192C81.3336 385.094 81.6064 384.981 81.8509 384.842L81.864 380.215" fill="#195DA0"/>
<path d="M140.953 342.593C142.543 343.51 142.547 344.994 140.967 345.914L81.8644 380.215C80.2838 381.134 77.7229 381.132 76.1325 380.215L25.3625 350.94C23.7772 350.027 23.7633 348.541 25.3439 347.625L84.4459 313.321C86.0259 312.403 88.5978 312.403 90.1831 313.32L140.953 342.593Z" fill="#56A6E8"/>
<path d="M144.498 318.65C144.496 318.998 144.465 319.317 144.407 319.61L144.399 319.641C144.341 319.932 144.256 320.196 144.146 320.433L144.142 320.441C144.049 320.638 143.929 320.808 143.803 320.964C143.763 321.015 143.724 321.07 143.679 321.119C143.531 321.277 143.371 321.416 143.189 321.518C144.488 320.767 143.27 321.494 144.57 320.742C145.871 319.985 147.171 319.231 148.471 318.478C148.653 318.371 148.812 318.232 148.961 318.075C149.006 318.026 149.046 317.972 149.088 317.917C149.142 317.851 149.201 317.792 149.249 317.718C149.311 317.62 149.367 317.52 149.417 317.411L149.422 317.403L149.431 317.379C149.464 317.309 149.497 317.235 149.527 317.159C149.554 317.082 149.581 317.002 149.604 316.924C149.625 316.848 149.646 316.77 149.664 316.693C149.671 316.662 149.676 316.629 149.683 316.6L149.689 316.568C149.694 316.537 149.702 316.508 149.707 316.474C149.72 316.404 149.731 316.336 149.738 316.261C149.748 316.187 149.757 316.121 149.762 316.044L149.737 316.056L149.762 316.044C149.767 315.976 149.771 315.906 149.775 315.835C149.778 315.765 149.779 315.693 149.781 315.62V315.609L144.498 318.65" fill="#206FBE"/>
<path d="M87.6713 184.925L87.6915 184.927C87.9582 184.95 88.2377 185.011 88.5268 185.109L88.5321 185.111C88.8262 185.212 89.1305 185.351 89.4421 185.529L94.7255 182.485C94.6771 182.458 94.6296 182.433 94.583 182.405C94.52 182.374 94.4601 182.341 94.3978 182.309C94.3372 182.28 94.2761 182.251 94.2156 182.223C94.1548 182.196 94.0955 182.173 94.0358 182.149C93.9739 182.124 93.9132 182.102 93.853 182.081L93.8185 182.067L93.8056 182.065C93.7616 182.049 93.7177 182.034 93.6741 182.022C93.6099 182.003 93.5476 181.985 93.4876 181.971C93.4245 181.954 93.3633 181.94 93.303 181.928C93.2361 181.915 93.1715 181.905 93.1069 181.897C93.0607 181.891 93.0171 181.887 92.974 181.881L92.9558 181.879L92.9069 181.875C92.8345 181.872 92.764 181.87 92.6947 181.87C92.6158 181.87 92.5376 181.874 92.4616 181.879C92.373 181.889 92.2868 181.901 92.2031 181.917L92.1947 181.92H92.1919C92.0876 181.94 91.9876 181.969 91.8888 182.005C91.7615 182.049 91.6398 182.104 91.5251 182.173C88.9249 183.682 88.8444 183.705 86.2422 185.214C86.4451 185.099 86.6683 185.015 86.9059 184.966L86.9151 184.964C87.1509 184.915 87.4047 184.903 87.6713 184.925" fill="#206FBE"/>
<path d="M144.77 222.586L150.053 219.543L149.781 315.608L144.498 318.65L144.77 222.586Z" fill="#206FBE"/>
<path d="M89.4434 185.529L94.7267 182.485L145.585 211.813L140.302 214.857L89.4434 185.529" fill="#206FBE"/>
<path d="M142.031 216.255L142.055 216.278C142.319 216.56 142.569 216.861 142.805 217.179L142.808 217.185C143.04 217.5 143.256 217.832 143.455 218.174L143.482 218.223C143.678 218.563 143.856 218.913 144.01 219.267L144.014 219.271C144.171 219.636 144.309 220.004 144.421 220.371L144.426 220.393C144.537 220.762 144.623 221.132 144.682 221.497L144.682 221.501C144.742 221.869 144.772 222.23 144.77 222.586L150.053 219.542C150.053 219.476 150.051 219.41 150.05 219.341C150.048 219.269 150.044 219.196 150.041 219.126C150.036 219.054 150.03 218.979 150.022 218.909C150.017 218.837 150.008 218.763 149.999 218.688C149.99 218.614 149.978 218.54 149.967 218.465L149.966 218.454V218.452C149.953 218.379 149.941 218.309 149.927 218.239C149.913 218.16 149.898 218.082 149.88 218.004C149.863 217.926 149.844 217.85 149.825 217.77C149.806 217.693 149.785 217.611 149.763 217.533C149.747 217.47 149.728 217.41 149.71 217.349L149.703 217.33L149.693 217.298C149.669 217.22 149.646 217.144 149.618 217.066C149.593 216.99 149.567 216.913 149.54 216.837C149.513 216.763 149.486 216.689 149.458 216.618C149.428 216.544 149.399 216.474 149.37 216.397C149.346 216.345 149.321 216.288 149.297 216.231L149.293 216.219L149.278 216.184C149.246 216.112 149.213 216.042 149.179 215.967C149.143 215.891 149.103 215.811 149.065 215.733L149.05 215.741L149.065 215.733C149.019 215.643 148.973 215.553 148.925 215.463C148.873 215.365 148.818 215.269 148.761 215.174L148.741 215.135C148.728 215.113 148.718 215.092 148.705 215.07C148.599 214.89 148.487 214.714 148.371 214.54C148.279 214.404 148.184 214.269 148.087 214.134C148.021 214.048 147.954 213.96 147.886 213.87C147.83 213.8 147.773 213.731 147.716 213.661C147.658 213.592 147.6 213.524 147.541 213.457C147.484 213.393 147.426 213.328 147.367 213.264L147.334 213.231L147.32 213.217C147.274 213.166 147.228 213.119 147.183 213.07C147.121 213.01 147.057 212.947 146.994 212.887C146.93 212.824 146.865 212.762 146.797 212.703C146.731 212.644 146.665 212.586 146.598 212.531C146.565 212.502 146.53 212.476 146.498 212.447L146.477 212.431C146.452 212.41 146.425 212.388 146.399 212.367C146.333 212.318 146.269 212.267 146.203 212.216C146.138 212.171 146.073 212.124 146.008 212.079C145.945 212.036 145.883 211.995 145.818 211.954C145.755 211.915 145.692 211.876 145.629 211.839L145.584 211.814L140.301 214.857C140.606 215.033 140.904 215.24 141.193 215.475L141.216 215.492C141.498 215.723 141.771 215.977 142.031 216.255" fill="#206FBE"/>
<path d="M140.301 214.857C142.778 216.284 144.778 219.75 144.77 222.586L144.499 318.65C144.489 321.488 142.474 322.637 140 321.208L89.1426 291.882C86.6576 290.449 84.6559 286.987 84.6641 284.145L84.9361 188.083C84.9434 185.245 86.9602 184.098 89.4427 185.529L140.301 214.857Z" fill="#5DACED"/>
<path d="M142.009 319.868C141.852 319.868 141.508 319.823 140.978 319.516L90.1201 290.189C88.2481 289.112 86.6129 286.29 86.6192 284.153L86.8912 188.091C86.8922 187.722 86.946 186.868 87.4235 186.868C87.5811 186.868 87.9283 186.913 88.4626 187.223L139.322 216.55C141.188 217.623 142.819 220.442 142.812 222.58L142.541 318.644C142.538 319.012 142.485 319.868 142.009 319.868" fill="white"/>
<path d="M137.544 314.741C137.247 314.741 136.911 314.645 136.556 314.44L95.0332 290.497C94.2916 290.068 93.635 289.269 93.2324 288.393C93.6221 289.009 94.1317 289.543 94.6897 289.863L136.212 313.806C136.567 314.012 136.903 314.107 137.201 314.107C137.929 314.107 138.429 313.529 138.429 312.526L138.43 256.193C138.43 255.636 138.276 255.032 138.014 254.46C138.479 255.198 138.774 256.059 138.774 256.827L138.773 313.159C138.773 314.162 138.273 314.741 137.544 314.741Z" fill="white"/>
<path d="M137.201 314.107C136.903 314.107 136.567 314.012 136.212 313.806L94.6894 289.863C94.1315 289.543 93.6218 289.009 93.2322 288.393C93.1038 288.19 92.9885 287.977 92.8887 287.76C93.2785 288.376 93.7882 288.909 94.3458 289.23L135.868 313.173C136.223 313.378 136.559 313.474 136.857 313.474C137.585 313.474 138.085 312.896 138.085 311.893L138.087 255.56C138.087 255.003 137.932 254.397 137.669 253.826C137.798 254.03 137.913 254.243 138.013 254.46C138.276 255.032 138.43 255.636 138.43 256.193L138.429 312.526C138.429 313.529 137.929 314.107 137.201 314.107Z" fill="#FAFAFA"/>
<path d="M136.855 313.474C136.558 313.474 136.222 313.378 135.866 313.173L94.3441 289.23C93.7865 288.909 93.2769 288.376 92.887 287.76C92.7585 287.557 92.6428 287.344 92.543 287.125C92.9326 287.742 93.4427 288.274 94.0005 288.597L135.523 312.54C135.878 312.745 136.214 312.841 136.512 312.841C137.24 312.841 137.74 312.262 137.74 311.259L137.742 254.927C137.742 254.37 137.587 253.766 137.324 253.193C137.453 253.396 137.568 253.609 137.668 253.826C137.93 254.397 138.085 255.003 138.085 255.56L138.083 311.893C138.083 312.896 137.583 313.474 136.855 313.474" fill="#F7F7F7"/>
<path d="M136.512 312.84C136.214 312.84 135.878 312.745 135.523 312.539L94.0004 288.596C93.4426 288.274 92.9326 287.742 92.5429 287.124C92.4145 286.921 92.299 286.71 92.1992 286.491C92.5891 287.109 93.0989 287.64 93.6567 287.963L135.179 311.906C135.534 312.111 135.87 312.207 136.168 312.207C136.896 312.207 137.396 311.628 137.396 310.626L137.398 254.293C137.398 253.736 137.243 253.132 136.981 252.559C137.109 252.763 137.225 252.976 137.324 253.193C137.587 253.765 137.742 254.369 137.742 254.926L137.74 311.259C137.74 312.262 137.24 312.84 136.512 312.84" fill="#F2F2F2"/>
<path d="M136.17 312.207C135.872 312.207 135.536 312.112 135.181 311.906L93.6587 287.963C93.1009 287.641 92.5911 287.109 92.2013 286.491C92.0729 286.288 91.9574 286.075 91.8576 285.858C92.2474 286.476 92.7573 287.007 93.3153 287.33L134.837 311.273C135.193 311.478 135.528 311.574 135.826 311.574C136.554 311.574 137.055 310.995 137.055 309.993L137.056 253.66C137.056 253.103 136.902 252.499 136.639 251.926C136.768 252.13 136.883 252.343 136.983 252.56C137.245 253.132 137.4 253.736 137.4 254.293L137.398 310.626C137.398 311.629 136.898 312.207 136.17 312.207" fill="#EDEDED"/>
<path d="M135.826 311.574C135.528 311.574 135.192 311.478 134.837 311.273L93.3151 287.33C92.7571 287.007 92.2473 286.475 91.8574 285.858C91.7289 285.654 91.6134 285.441 91.5136 285.224C91.9036 285.842 92.4137 286.374 92.9716 286.696L134.494 310.639C134.849 310.845 135.185 310.94 135.482 310.94C136.211 310.94 136.711 310.362 136.711 309.359L136.713 253.027C136.713 252.469 136.558 251.865 136.296 251.295C136.424 251.498 136.54 251.709 136.639 251.926C136.902 252.499 137.056 253.103 137.056 253.66L137.055 309.992C137.055 310.995 136.554 311.574 135.826 311.574Z" fill="#EAEAEA"/>
<path d="M135.482 310.941C135.184 310.941 134.848 310.845 134.493 310.64L92.9713 286.696C92.4133 286.374 91.9032 285.842 91.5132 285.225C91.3848 285.021 91.2695 284.808 91.1697 284.591C91.5596 285.209 92.0696 285.741 92.6276 286.063L134.149 310.006C134.505 310.212 134.84 310.307 135.138 310.307C135.867 310.307 136.367 309.729 136.367 308.726L136.369 252.393C136.369 251.836 136.214 251.232 135.952 250.661C136.08 250.865 136.196 251.078 136.296 251.295C136.558 251.866 136.713 252.47 136.713 253.027L136.711 309.359C136.711 310.362 136.21 310.941 135.482 310.941" fill="#E5E5E5"/>
<path d="M135.139 310.307C134.841 310.307 134.505 310.211 134.15 310.006L92.6283 286.063C92.0703 285.74 91.5603 285.209 91.1704 284.591C91.0418 284.388 90.9262 284.175 90.8262 283.958C91.2162 284.575 91.7265 285.107 92.2848 285.43L133.806 309.373C134.162 309.578 134.498 309.674 134.795 309.674C135.524 309.674 136.024 309.095 136.024 308.092L136.026 251.76C136.026 251.203 135.872 250.599 135.609 250.028C135.737 250.231 135.853 250.442 135.953 250.661C136.215 251.232 136.37 251.836 136.37 252.393L136.368 308.726C136.368 309.729 135.867 310.307 135.139 310.307" fill="#E1E1E1"/>
<path d="M134.794 309.674C134.496 309.674 134.16 309.578 133.805 309.373L92.2832 285.43C91.7248 285.107 91.2146 284.575 90.8245 283.958C90.696 283.754 90.5805 283.541 90.4805 283.322C90.8707 283.94 91.381 284.474 91.9393 284.796L133.461 308.739C133.816 308.945 134.152 309.04 134.45 309.04C135.178 309.04 135.679 308.462 135.679 307.459L135.681 251.127C135.681 250.569 135.526 249.965 135.264 249.395C135.392 249.598 135.508 249.811 135.608 250.028C135.87 250.599 136.025 251.203 136.025 251.76L136.023 308.092C136.023 309.095 135.522 309.674 134.794 309.674" fill="#DCDCDD"/>
<path d="M134.45 309.041C134.152 309.041 133.816 308.945 133.46 308.74L91.9389 284.797C91.3805 284.474 90.8703 283.941 90.48 283.323C90.3518 283.12 90.2363 282.909 90.1367 282.692C90.5268 283.309 91.037 283.841 91.5954 284.163L133.117 308.107C133.472 308.312 133.808 308.408 134.106 308.408C134.834 308.408 135.335 307.829 135.335 306.826L135.337 250.494C135.337 249.937 135.182 249.333 134.92 248.762C135.048 248.965 135.164 249.178 135.263 249.395C135.526 249.966 135.681 250.57 135.681 251.127L135.679 307.46C135.679 308.462 135.178 309.041 134.45 309.041Z" fill="#D8D8D8"/>
<path d="M134.108 308.407C133.81 308.407 133.474 308.311 133.119 308.106L91.5973 284.163C91.0389 283.84 90.5287 283.309 90.1386 282.691C90.01 282.488 89.8947 282.275 89.7949 282.058C90.185 282.676 90.6952 283.207 91.2536 283.53L132.775 307.473C133.13 307.678 133.466 307.774 133.764 307.774C134.492 307.774 134.993 307.195 134.993 306.193L134.995 249.86C134.995 249.303 134.841 248.699 134.578 248.128C134.707 248.331 134.822 248.544 134.922 248.761C135.184 249.332 135.339 249.936 135.339 250.493L135.337 306.826C135.337 307.829 134.836 308.407 134.108 308.407Z" fill="#D4D4D4"/>
<path d="M133.763 307.774C133.465 307.774 133.129 307.678 132.774 307.473L91.2525 283.53C90.6941 283.207 90.1839 282.676 89.7939 282.058C89.3277 281.319 89.0331 280.459 89.0331 279.691L89.0343 223.358C89.0343 222.357 89.534 221.777 90.2614 221.777C90.5597 221.777 90.8965 221.875 91.2525 222.08L132.774 246.021C133.516 246.449 134.174 247.251 134.577 248.128C134.84 248.699 134.994 249.303 134.994 249.86L134.992 306.193C134.992 307.196 134.491 307.774 133.763 307.774Z" fill="#CFCFCF"/>
<path d="M89.0331 279.691C89.0331 281.104 90.0271 282.822 91.2525 283.53L132.774 307.473C133.998 308.178 134.992 307.604 134.992 306.192L134.994 249.86C134.994 248.449 133.998 246.727 132.774 246.021L91.2525 222.08C90.0281 221.374 89.0343 221.945 89.0343 223.358L89.0331 279.691" fill="#EEEBFC"/>
<path d="M105.993 288.643C105.993 289.284 105.54 289.544 104.983 289.222C104.426 288.901 103.973 288.121 103.973 287.476C103.973 286.835 104.426 286.575 104.983 286.896C105.54 287.216 105.993 287.996 105.993 288.643Z" fill="#206FBE"/>
<path d="M109.488 290.678C109.488 291.321 109.037 291.583 108.479 291.259C107.92 290.938 107.469 290.156 107.469 289.513C107.469 288.872 107.92 288.612 108.479 288.934C109.037 289.255 109.488 290.035 109.488 290.678" fill="white"/>
<path d="M112.985 292.715C112.985 293.358 112.535 293.62 111.975 293.297C111.418 292.975 110.967 292.193 110.967 291.552C110.967 290.909 111.418 290.647 111.975 290.967C112.535 291.29 112.985 292.072 112.985 292.715Z" fill="#232846"/>
<path d="M119.558 287.39C119.558 289.151 118.323 289.863 116.797 288.983L103.772 281.473C102.247 280.596 101.011 278.457 101.012 276.7C101.011 274.939 102.247 274.227 103.772 275.107L116.797 282.619C118.323 283.496 119.558 285.635 119.558 287.39" fill="#206FBE"/>
<path d="M102.587 234.211C102.587 234.823 102.157 235.071 101.63 234.764L92.8752 229.817C92.3472 229.512 91.918 228.769 91.918 228.159C91.918 227.549 92.3472 227.301 92.8752 227.608L101.63 232.555C102.157 232.858 102.587 233.599 102.587 234.211Z" fill="#C8C5D8"/>
<path d="M102.587 238.591C102.587 239.203 102.157 239.449 101.63 239.144L92.8752 234.199C92.3472 233.892 91.918 233.151 91.918 232.541C91.918 231.929 92.3472 231.681 92.8752 231.988L101.63 236.933C102.157 237.24 102.587 237.981 102.587 238.591Z" fill="#C8C5D8"/>
<path d="M108.198 261.068C105.431 259.471 103.186 255.589 103.186 252.395C103.186 249.201 105.431 247.909 108.199 249.506C110.968 251.101 113.212 254.983 113.212 258.175C113.212 261.369 110.968 262.663 108.198 261.068ZM113.122 266.194L113.948 266.19C114.607 266.186 114.873 265.41 114.54 264.458C114.207 263.506 113.404 262.736 112.745 262.738H112.581C113.657 262.087 114.326 260.738 114.326 258.821C114.326 254.917 111.583 250.171 108.199 248.222C104.816 246.271 102.072 247.851 102.072 251.754C102.072 255.656 104.816 260.402 108.199 262.353C108.503 262.529 108.792 262.638 109.084 262.759L107.903 262.767C107.245 262.771 106.981 263.547 107.313 264.499C107.644 265.451 108.449 266.219 109.108 266.217L111.887 266.202L110.408 266.209L114.326 276.904L116.907 276.669L113.122 266.194" fill="#C8C5D8"/>
<path d="M128.76 247.385V242.655L141.954 223.282L134.173 218.665L120.979 238.036V242.766L128.76 247.385" fill="#206FBE"/>
<mask id="mask3_250_477" style="mask-type:alpha" maskUnits="userSpaceOnUse" x="113" y="213" width="22" height="30">
<path d="M120.986 242.717V237.987L134.18 218.614L126.399 213.997L113.205 233.37V238.1L120.986 242.717Z" fill="white"/>
</mask>
<g mask="url(#mask3_250_477)">
<path d="M120.986 242.717V237.987L134.18 218.614L126.399 213.997L113.205 233.37V238.1L120.986 242.717Z" fill="url(#paint3_linear_250_477)"/>
</g>
<path d="M113.216 238.052V233.321L126.41 213.948L118.63 209.331L105.436 228.702V233.433L113.216 238.052" fill="#206FBE"/>
<mask id="mask4_250_477" style="mask-type:alpha" maskUnits="userSpaceOnUse" x="97" y="204" width="22" height="30">
<path d="M105.445 233.384V228.653L118.639 209.28L110.859 204.661L97.6641 224.036V228.765L105.445 233.384Z" fill="white"/>
</mask>
<g mask="url(#mask4_250_477)">
<path d="M105.445 233.384V228.653L118.639 209.28L110.859 204.661L97.6641 224.036V228.765L105.445 233.384Z" fill="url(#paint4_linear_250_477)"/>
</g>
<path d="M97.6762 228.716V223.987L110.87 204.614L103.089 199.995L89.8945 219.368V224.099L97.6762 228.716" fill="#206FBE"/>
<mask id="mask5_250_477" style="mask-type:alpha" maskUnits="userSpaceOnUse" x="82" y="195" width="22" height="30">
<path d="M89.9041 224.05V219.32L103.098 199.947L95.317 195.328L82.123 214.703V219.431L89.9041 224.05Z" fill="white"/>
</mask>
<g mask="url(#mask5_250_477)">
<path d="M89.9041 224.05V219.32L103.098 199.947L95.317 195.328L82.123 214.703V219.431L89.9041 224.05" fill="url(#paint5_linear_250_477)"/>
</g>
<path d="M82.133 219.382V214.654L95.3269 195.281L87.5459 190.662L74.3516 210.035V214.765L82.133 219.382" fill="#206FBE"/>
<mask id="mask6_250_477" style="mask-type:alpha" maskUnits="userSpaceOnUse" x="128" y="223" width="14" height="25">
<path d="M141.952 223.282V239.574L128.758 247.385V242.655L141.952 223.282Z" fill="white"/>
</mask>
<g mask="url(#mask6_250_477)">
<path d="M141.952 223.282V239.574L128.758 247.385V242.655L141.952 223.282Z" fill="url(#paint6_linear_250_477)"/>
</g>
<path d="M61.8301 345.523C61.8301 345.523 62.0681 347.648 64.3368 347.427C66.6053 347.204 65.6696 344.685 65.6696 344.685C65.6696 344.685 63.8166 346.466 61.8301 345.523" fill="#FF9797"/>
<path d="M84.6441 305.465C84.6441 305.465 85.3968 322.813 84.6441 326.121C83.8912 329.426 81.4573 333.801 80.3859 339.053C79.3148 344.305 79.2175 350.527 79.2175 350.527C79.2175 350.527 77.851 351.907 75.3784 351.366C73.4574 350.949 73.1809 344.888 73.1809 339.829C73.1809 334.774 75.0306 329.913 75.0306 327.286C75.0306 324.661 73.1809 317.757 73.1809 317.757C73.1809 317.757 71.5253 326.877 70.7466 328.541C69.9676 330.204 68.4876 332.927 67.621 337.693C66.7544 342.458 66.7544 345.375 66.7544 345.375C66.7544 345.375 61.3339 346.637 61.3178 345.277C61.3018 343.914 61.272 334.581 63.0883 329.328C64.9043 324.076 64.7164 320.771 64.4694 318.632C64.2228 316.492 63.7118 308.292 66.499 305.051C66.499 305.051 80.5282 307.178 84.6441 305.465" fill="#2A2D59"/>
<path d="M60.1134 291.341C60.1134 291.341 59.3715 292.785 60.0727 294.382C60.7736 295.979 62.9392 300.762 63.4304 302.748C63.9203 304.734 64.8353 308.792 64.8353 308.792C64.8353 308.792 67.4281 306.744 66.0646 299.246C65.0433 293.632 62.9543 290.219 62.9543 290.219L60.1134 291.341" fill="#FF9797"/>
<path d="M62.2237 279.096C62.2237 279.096 60.2153 285.154 59.7406 287.414C59.266 289.673 59.0645 290.576 59.0645 290.576C59.0645 290.576 61.8056 293.162 63.3185 291.049C64.8308 288.936 62.2237 279.096 62.2237 279.096Z" fill="#206FBE"/>
<path d="M79.6963 261.821C79.6963 261.821 81.0129 262.951 80.7215 263.993C80.4295 265.033 80.1601 266.149 80.4011 266.833C80.6422 267.515 80.7007 269.585 79.8736 271.647C79.0467 273.708 78.8935 274.327 78.1803 274.261C77.4673 274.194 77.0285 274.335 77.0285 274.335L77.1636 275.805C77.1636 275.805 75.7035 276.751 72.6717 275.971C69.6401 275.191 69.2369 274.654 69.2369 274.654C69.2369 274.654 70.0119 271.553 69.1888 269.812C68.3658 268.07 74.3746 262.31 74.3746 262.31L79.6963 261.821" fill="#FF9797"/>
<path d="M80.903 260.621C81.9425 263.369 80.53 263.879 79.2696 263.682C78.1084 263.5 76.6556 263.891 76.8913 265.08C77.0359 265.809 77.2913 266.835 76.6797 267.148C76.0685 267.458 75.9499 264.589 74.8547 265.201C73.759 265.815 74.3824 266.333 74.6891 267.58C74.9971 268.833 76.043 271.163 74.0473 271.731C72.0516 272.298 69.7486 271.614 69.3216 271.143C68.894 270.67 66.5058 266.45 67.8165 262.599C69.7109 257.032 79.606 257.188 80.903 260.621" fill="#2A2D59"/>
<path d="M69.2377 273.932C69.2377 273.932 63.021 275.519 62.2227 279.096C61.4242 282.674 61.4075 287.422 63.6563 293.471C65.9052 299.521 65.1881 305.346 65.1881 305.346C65.1881 305.346 70.0474 310.643 74.9383 310.008C79.8292 309.373 84.7021 306.908 84.7021 306.908C84.7021 306.908 84.312 298.206 83.4119 296.161C82.5113 294.116 82.6465 293.854 82.6465 293.854C82.6465 293.854 85.2513 292.756 86.495 291.198C87.7384 289.64 87.9153 289.529 87.9153 289.529C87.9153 289.529 84.541 279.413 83.2213 278.596C81.9014 277.781 77.8842 277.208 77.5563 276.362C77.2281 275.515 77.1643 275.083 77.1643 275.083C77.1643 275.083 72.87 276.1 69.2377 273.932" fill="#206FBE"/>
<path d="M82.6467 293.855C82.6467 293.855 86.5917 302.031 88.0332 301.505C89.475 300.979 98.2546 289.57 99.5114 288.796C100.768 288.024 103.121 286.333 103.129 284.81C103.136 283.285 102.326 282.5 102.326 282.5C102.326 282.5 104.049 278.24 103.264 277.722C102.478 277.204 101.174 281.745 100.363 282.017C99.552 282.289 99.1897 282.402 99.5643 281.354C99.9385 280.305 99.5486 279.74 99.5486 279.74C99.5486 279.74 98.7777 280.295 98.4603 281.651C98.1424 283.008 98.3444 285.201 97.8878 285.584C97.4316 285.969 90.0631 294.138 89.1898 294.267C88.3164 294.394 87.6615 289.791 87.6615 289.791C87.6615 289.791 84.2856 293.071 82.6467 293.855" fill="#FF9797"/>
<path d="M75.0664 351.133C75.0664 351.133 75.3046 353.256 77.5731 353.033C79.8417 352.814 78.9059 350.292 78.9059 350.292C78.9059 350.292 77.0529 352.071 75.0664 351.133Z" fill="#FF9797"/>
<path d="M79.3235 351.133C79.3235 351.133 80.0611 350.429 81.2178 351.133C82.3749 351.833 87.4014 351.792 87.6238 352.857C87.8467 353.924 85.1775 355.253 80.3729 355.388C75.5687 355.521 75.1373 355.433 75.0637 354.28C74.99 353.125 74.3603 351.602 75.3201 351.919C76.2799 352.235 77.3477 352.724 78.4158 352.323C79.4832 351.925 79.3235 351.133 79.3235 351.133" fill="#2A2D59"/>
<path d="M65.8523 345.562C65.8523 345.562 66.4442 345.087 67.0047 345.562C67.5652 346.035 71.3439 343.776 72.4266 345.351C73.5087 346.927 69.3726 348.774 66.5682 349.581C63.7642 350.39 61.7362 350.703 61.3166 349.581C60.8972 348.461 60.722 346.074 62.2118 346.52C63.7014 346.97 64.8927 347.067 65.8523 345.562" fill="#2A2D59"/>
<path d="M471.496 199.036L497.062 213.78C499.051 214.925 499.049 216.784 497.062 217.93L468.361 234.48C466.372 235.628 463.151 235.628 461.164 234.48L435.596 219.736C433.61 218.592 433.608 216.734 435.596 215.588L464.298 199.036C466.282 197.892 469.51 197.892 471.496 199.036" fill="#56A6E8"/>
<path d="M471.496 197.624L497.062 212.367C499.051 213.514 499.049 215.373 497.062 216.519L468.361 233.069C466.372 234.217 463.151 234.217 461.164 233.069L435.596 218.325C433.61 217.179 433.608 215.32 435.596 214.175L464.298 197.624C466.282 196.479 469.51 196.479 471.496 197.624" fill="#EEEBFC"/>
<path d="M471.496 197.624L472.663 198.297L436.763 218.997L435.596 218.325C433.61 217.179 433.608 215.32 435.596 214.175L464.298 197.624C466.282 196.479 469.51 196.479 471.496 197.624Z" fill="#206FBE"/>
<path d="M473.05 202.404C473.656 202.754 473.656 203.321 473.05 203.67L445.348 219.644C444.74 219.994 443.759 219.994 443.152 219.644C442.546 219.294 442.546 218.73 443.152 218.378L470.854 202.404C471.461 202.054 472.443 202.054 473.05 202.404Z" fill="#B5B3C9"/>
<path d="M477.003 204.683C477.609 205.033 477.609 205.602 477.003 205.95L449.299 221.925C448.692 222.275 447.712 222.275 447.105 221.925C446.498 221.575 446.498 221.007 447.105 220.657L474.807 204.683C475.413 204.335 476.396 204.335 477.003 204.683" fill="#B5B3C9"/>
<path d="M477.48 215.645C480.413 217.34 480.413 220.082 477.48 221.775C474.544 223.468 469.786 223.468 466.85 221.775C463.915 220.082 463.915 217.34 466.85 215.645C469.786 213.954 474.544 213.954 477.48 215.645Z" fill="#206FBE"/>
<path d="M467.182 219.359L473.184 220.995L475.392 215.613L474.173 215.633L471.738 218.944L467.742 218.391L467.182 219.359" fill="#EEEBFC"/>
<path d="M204.273 260.664L178.705 275.408C176.717 276.553 176.719 278.41 178.705 279.558L207.407 296.108C209.395 297.256 212.617 297.256 214.603 296.108L240.172 281.366C242.158 280.218 242.16 278.361 240.172 277.214L211.47 260.664C209.485 259.52 206.258 259.52 204.273 260.664" fill="#56A6E8"/>
<path d="M204.273 259.252L178.705 273.995C176.717 275.142 176.719 277.001 178.705 278.145L207.407 294.697C209.395 295.843 212.617 295.843 214.603 294.697L240.172 279.953C242.158 278.807 242.16 276.948 240.172 275.801L211.47 259.252C209.485 258.107 206.258 258.107 204.273 259.252Z" fill="#EEEBFC"/>
<path d="M204.274 259.252L203.105 259.923L239.005 280.625L240.172 279.953C242.158 278.807 242.16 276.948 240.172 275.801L211.47 259.252C209.486 258.107 206.258 258.107 204.274 259.252" fill="#206FBE"/>
<path d="M202.721 264.032C202.114 264.382 202.114 264.949 202.721 265.298L230.422 281.272C231.029 281.622 232.011 281.622 232.62 281.272C233.225 280.922 233.225 280.355 232.62 280.006L204.917 264.032C204.31 263.682 203.327 263.682 202.721 264.032" fill="#B5B3C9"/>
<path d="M198.766 266.311C198.159 266.661 198.159 267.228 198.766 267.578L226.467 283.552C227.076 283.901 228.056 283.901 228.663 283.552C229.27 283.202 229.27 282.637 228.663 282.287L200.961 266.311C200.355 265.961 199.372 265.961 198.766 266.311Z" fill="#B5B3C9"/>
<path d="M198.289 277.275C195.354 278.966 195.354 281.71 198.289 283.403C201.224 285.095 205.982 285.095 208.918 283.403C211.852 281.71 211.852 278.966 208.918 277.275C205.982 275.582 201.224 275.582 198.289 277.275Z" fill="#206FBE"/>
<path d="M208.587 280.987L202.585 282.623L200.377 277.242L201.596 277.259L204.031 280.572L208.026 280.017L208.587 280.987" fill="#EEEBFC"/>
<path d="M273.494 392.367V414.422L249.988 400.8V378.939L273.494 392.367" fill="#EEEBFC"/>
<path d="M273.494 392.368L292.576 381.191V403.609L273.494 414.423V392.368Z" fill="#BAB8C9"/>
<path d="M249.988 378.939V372.961L273.494 386.042V392.368L249.988 378.939Z" fill="#DCDAEA"/>
<path d="M292.576 381.191V375.041L273.494 386.042V392.368L292.576 381.191Z" fill="#9190A5"/>
<path d="M249.988 372.962L269.675 361.959L292.576 375.041L273.494 386.042L249.988 372.962" fill="#EEEBFC"/>
<path d="M259.234 367.791L281.908 381.191V387.44L284.292 386.042V379.817L261.74 366.394L259.234 367.791Z" fill="white"/>
<path d="M273.494 362.795V384.852L249.988 371.23V349.368L273.494 362.795" fill="#EEEBFC"/>
<path d="M273.494 362.795L292.576 351.62V374.038L273.494 384.852V362.795" fill="#BAB8C9"/>
<path d="M249.988 349.368V343.389L273.494 356.471V362.795L249.988 349.368" fill="#DCDAEA"/>
<path d="M292.576 351.62V345.468L273.494 356.472V362.795L292.576 351.62Z" fill="#9190A5"/>
<path d="M249.988 343.389L269.675 332.388L292.576 345.469L273.494 356.472L249.988 343.389Z" fill="#EEEBFC"/>
<path d="M259.234 338.222L281.908 351.62V357.869L284.292 356.472V350.246L261.74 336.823L259.234 338.222Z" fill="white"/>
<path d="M297.736 406.277V428.332L274.23 414.712V392.85L297.736 406.277" fill="#EEEBFC"/>
<path d="M297.736 406.277L316.819 395.102V417.523L297.736 428.332V406.277Z" fill="#BAB8C9"/>
<path d="M274.23 392.85V386.871L297.736 399.954V406.277L274.23 392.85" fill="#DCDAEA"/>
<path d="M316.819 395.102V388.951L297.736 399.954V406.277L316.819 395.102Z" fill="#9190A5"/>
<path d="M274.23 386.871L293.919 375.87L316.818 388.951L297.736 399.954L274.23 386.871" fill="#EEEBFC"/>
<path d="M283.479 381.705L306.152 395.102V401.35L308.536 399.954V393.726L285.984 380.303L283.479 381.705Z" fill="white"/>
<path d="M297.736 376.707V398.762L274.23 385.141V363.278L297.736 376.707Z" fill="#EEEBFC"/>
<path d="M297.736 376.707L316.819 365.532V387.95L297.736 398.762V376.707Z" fill="#BAB8C9"/>
<path d="M274.23 363.278V357.3L297.736 370.383V376.707L274.23 363.278Z" fill="#DCDAEA"/>
<path d="M316.819 365.531V359.38L297.736 370.383V376.707L316.819 365.531Z" fill="#9190A5"/>
<path d="M274.23 357.3L293.919 346.299L316.818 359.38L297.736 370.383L274.23 357.3" fill="#EEEBFC"/>
<path d="M283.479 352.134L306.152 365.532V371.779L308.536 370.383V364.157L285.984 350.733L283.479 352.134Z" fill="white"/>
<path d="M251.832 406.277V428.332L228.326 414.712V392.848L251.832 406.277Z" fill="#EEEBFC"/>
<path d="M251.83 406.277L270.912 395.102V417.521L251.83 428.332V406.277Z" fill="#BAB8C9"/>
<path d="M228.326 392.849V386.871L251.832 399.954V406.277L228.326 392.849Z" fill="#DCDAEA"/>
<path d="M270.912 395.102V388.951L251.83 399.954V406.277L270.912 395.102Z" fill="#9190A5"/>
<path d="M228.326 386.871L248.015 375.868L270.914 388.951L251.832 399.954L228.326 386.871Z" fill="#EEEBFC"/>
<path d="M237.573 381.705L260.246 395.102V401.35L262.63 399.954V393.726L240.078 380.303L237.573 381.705Z" fill="white"/>
<path d="M275.705 418.598V440.653L252.201 427.032V405.169L275.705 418.598Z" fill="#EEEBFC"/>
<path d="M275.705 418.598L294.789 407.423V429.841L275.705 440.653V418.598Z" fill="#BAB8C9"/>
<path d="M252.201 405.169V399.191L275.705 412.274V418.598L252.201 405.169Z" fill="#DCDAEA"/>
<path d="M294.789 407.423V401.271L275.705 412.274V418.598L294.789 407.423" fill="#9190A5"/>
<path d="M252.201 399.192L271.888 388.189L294.789 401.271L275.705 412.274L252.201 399.192Z" fill="#EEEBFC"/>
<path d="M261.445 394.023L284.119 407.423V413.67L286.503 412.274V406.047L263.951 392.624L261.445 394.023" fill="white"/>
<path d="M209.243 421.237V443.292L185.738 429.671V407.808L209.243 421.237Z" fill="#EEEBFC"/>
<path d="M209.242 421.237L228.324 410.06V432.48L209.242 443.292V421.237Z" fill="#BAB8C9"/>
<path d="M185.738 407.808V401.831L209.243 414.911V421.237L185.738 407.808Z" fill="#DCDAEA"/>
<path d="M228.324 410.06V403.91L209.242 414.911V421.237L228.324 410.06Z" fill="#9190A5"/>
<path d="M185.738 401.83L205.427 390.827L228.325 403.91L209.243 414.911L185.738 401.83" fill="#EEEBFC"/>
<path d="M194.984 396.662L217.658 410.06V416.309L220.042 414.911V408.686L197.49 395.263L194.984 396.662" fill="white"/>
<path d="M297.379 429.03L362.235 462.152C365.225 463.681 368.486 464.439 371.743 464.439C375.42 464.439 379.092 463.47 382.358 461.545L498.838 392.87C500.071 392.143 501.005 391.146 501.621 390.018C502.242 388.89 502.547 387.635 502.547 386.384C502.547 385.071 502.21 383.757 501.535 382.592C500.862 381.425 499.846 380.413 498.515 379.713L465.015 362.103L464.285 363.487L497.787 381.097C498.856 381.66 499.646 382.455 500.179 383.374C500.711 384.293 500.981 385.338 500.981 386.384C500.981 387.381 500.737 388.378 500.249 389.267C499.76 390.155 499.032 390.939 498.042 391.523L381.564 460.198C378.54 461.98 375.144 462.876 371.743 462.876C368.731 462.876 365.715 462.174 362.947 460.761L298.091 427.636L297.379 429.03" fill="#56A6E8"/>
<defs>
<linearGradient id="paint0_linear_250_477" x1="418.004" y1="333.813" x2="398.083" y2="333.813" gradientUnits="userSpaceOnUse">
<stop stop-color="#5A96D3"/>
<stop offset="1" stop-color="#64A1DD"/>
</linearGradient>
<linearGradient id="paint1_linear_250_477" x1="408.224" y1="326.234" x2="397.604" y2="321.803" gradientUnits="userSpaceOnUse">
<stop stop-color="#5181A9"/>
<stop offset="1" stop-color="#5B8BB4"/>
</linearGradient>
<linearGradient id="paint2_linear_250_477" x1="421.635" y1="312.604" x2="411.846" y2="308.52" gradientUnits="userSpaceOnUse">
<stop stop-color="#DDDDDD"/>
<stop offset="1" stop-color="white"/>
</linearGradient>
<linearGradient id="paint3_linear_250_477" x1="113.205" y1="228.358" x2="134.18" y2="228.358" gradientUnits="userSpaceOnUse">
<stop stop-color="white"/>
<stop offset="1" stop-color="#C0A7FC"/>
</linearGradient>
<linearGradient id="paint4_linear_250_477" x1="97.6643" y1="219.023" x2="118.639" y2="219.023" gradientUnits="userSpaceOnUse">
<stop stop-color="white"/>
<stop offset="1" stop-color="#C0A7FC"/>
</linearGradient>
<linearGradient id="paint5_linear_250_477" x1="82.123" y1="209.689" x2="103.098" y2="209.689" gradientUnits="userSpaceOnUse">
<stop stop-color="white"/>
<stop offset="1" stop-color="#C0A7FC"/>
</linearGradient>
<linearGradient id="paint6_linear_250_477" x1="128.758" y1="235.335" x2="141.952" y2="235.335" gradientUnits="userSpaceOnUse">
<stop stop-color="white"/>
<stop offset="1" stop-color="#C0A7FC"/>
</linearGradient>
</defs>
</svg>
